<?xml version="1.0" standalone="no"?><!DOCTYPE svg PUBLIC "-//W3C//DTD SVG 1.1//EN" "http://www.w3.org/Graphics/SVG/1.1/DTD/svg11.dtd"><svg t="1559031792501" class="icon" style="" viewBox="0 0 1024 1024" version="1.1" xmlns="http://www.w3.org/2000/svg" p-id="982" xmlns:xlink="http://www.w3.org/1999/xlink" width="200" height="200"><defs><style type="text/css"></style></defs><path d="M905.559919 421.700525h-15.366464a386.464323 386.464323 0 0 0-49.077011-117.04501l21.956526-21.235071c14.460121-14.032162 14.849293-37.127758 0.837818-51.587878l-67.616323-69.873778c-14.014061-14.476929-37.108364-14.850586-51.565899-0.836525l-23.434344 22.685737c-37.537616-24.030384-79.349657-41.809455-124.203959-51.827071V105.636202c0-20.13996-16.328404-36.469657-36.469657-36.469657h-97.243798c-20.138667 0-36.467071 16.329697-36.467071 36.469657v26.344727c-44.677172 9.980121-86.354747 27.681616-123.768242 51.568485l-23.175758-22.427151c-14.458828-14.014061-37.555717-13.640404-51.559434 0.836525l-67.622788 69.873778c-14.00501 14.460121-13.632646 37.555717 0.845576 51.587878l21.510465 20.817455a385.819152 385.819152 0 0 0-49.333011 117.463919H118.450424c-20.13996 0-36.468364 16.328404-36.468363 36.468364v106.369293c0 20.13996 16.328404 36.469657 36.468363 36.469656h15.358707c9.179798 38.83701 24.155798 75.340283 44.008728 108.710788l-16.195233 15.66901c-14.467879 14.015354-14.841535 37.110949-0.835232 51.586586l67.622788 69.875071c13.99596 14.478222 37.100606 14.850586 51.559434 0.835232l14.360566-13.89899c39.585616 26.766222 84.450263 46.184727 132.582141 56.939313v26.33697c0 20.137374 16.328404 36.468364 36.467071 36.468364h97.243798c20.141253 0 36.469657-16.33099 36.469656-36.468364v-26.33697c48.30901-10.792081 93.288727-30.324364 132.963556-57.230222l14.67604 14.189899c14.457535 14.015354 37.572525 13.64299 51.565899-0.835232l67.616324-69.875071c14.011475-14.475636 13.62101-37.572525-0.837819-51.586586l-16.630949-16.096969c19.731394-33.252848 34.615596-69.607434 43.751434-108.282829h15.366465c20.123152 0 36.469657-16.329697 36.469657-36.469656v-106.369293c-0.003879-20.13996-16.350384-36.469657-36.473536-36.469657zM513.062788 834.706101c-176.868848 0-320.243071-143.375515-320.243071-320.240485 0-176.867556 143.374222-320.240485 320.243071-320.240485 176.857212 0 320.239192 143.372929 320.239192 320.240485-0.001293 176.86497-143.38198 320.240485-320.239192 320.240485z" p-id="983"></path><path d="M511.998707 284.560808c-125.244768 0-226.778505 101.533737-226.778505 226.788849s101.533737 226.787556 226.778505 226.787555c125.252525 0 226.790141-101.532444 226.790141-226.787555S637.251232 284.560808 511.998707 284.560808z m0.019394 374.791758c-81.750626 0-148.01196-66.258747-148.01196-148.01196 0-81.733818 66.26004-147.993859 148.01196-147.993859 81.733818 0 147.992566 66.26004 147.992566 147.993859 0 81.753212-66.258747 148.01196-147.992566 148.01196z" fill="#00BD63" p-id="984"></path></svg>