<?xml version="1.0" standalone="no"?><!DOCTYPE svg PUBLIC "-//W3C//DTD SVG 1.1//EN" "http://www.w3.org/Graphics/SVG/1.1/DTD/svg11.dtd"><svg t="1559031850756" class="icon" style="" viewBox="0 0 1024 1024" version="1.1" xmlns="http://www.w3.org/2000/svg" p-id="1218" xmlns:xlink="http://www.w3.org/1999/xlink" width="200" height="200"><defs><style type="text/css"></style></defs><path d="M649.941333 244.763152h-60.183272v-102.169859L308.816162 369.013657h23.655434v131.599515z" p-id="1219"></path><path d="M682.772687 3.878788C605.315879 3.878788 542.509253 66.681535 542.509253 144.140929s62.806626 140.262141 140.263434 140.262142c77.458101 0 140.260848-62.802747 140.260848-140.262142S760.230788 3.878788 682.772687 3.878788z m0 208.559838c-37.71604 0-68.288646-30.582949-68.288647-68.297697 0-37.714747 30.572606-68.300283 68.288647-68.300283 37.725091 0 68.300283 30.585535 68.300283 68.300283s-30.575192 68.297697-68.300283 68.297697z" fill="#00BD63" p-id="1220"></path><path d="M619.108848 718.832485l59.266586-29.469738-325.514343-262.343111v150.675394l266.247757 214.574546z" p-id="1221"></path><path d="M754.134626 597.068283c-102.749091 0-186.061576 83.313778-186.061575 186.062869 0 102.746505 83.313778 186.057697 186.061575 186.057696 102.746505 0 186.05899-83.312485 186.05899-186.057696 0-102.750384-83.313778-186.062869-186.05899-186.062869z m0 276.659717c-50.029899 0-90.600727-40.557899-90.600727-90.596848 0-50.040242 40.570828-90.621414 90.600727-90.621415 50.038949 0 90.609778 40.581172 90.609778 90.621415 0 50.038949-40.570828 90.596848-90.609778 90.596848zM244.379152 318.35798c-88.670384 0-160.572768 71.921778-160.572768 160.571475 0 88.689778 71.902384 160.572768 160.572768 160.572767S404.950626 567.617939 404.950626 478.929455c0.001293-88.649697-71.901091-160.571475-160.571474-160.571475z m0 238.767838c-43.17996 0-78.18602-35.007354-78.186021-78.196363 0-43.169616 35.006061-78.174384 78.186021-78.174384 43.18901 0 78.195071 35.004768 78.19507 78.174384 0 43.18901-35.004768 78.196364-78.19507 78.196363z" fill="#00BD63" p-id="1222"></path></svg>