<?xml version="1.0" standalone="no"?><!DOCTYPE svg PUBLIC "-//W3C//DTD SVG 1.1//EN" "http://www.w3.org/Graphics/SVG/1.1/DTD/svg11.dtd"><svg t="1559031885294" class="icon" style="" viewBox="0 0 1024 1024" version="1.1" xmlns="http://www.w3.org/2000/svg" p-id="1338" xmlns:xlink="http://www.w3.org/1999/xlink" width="200" height="200"><defs><style type="text/css"></style></defs><path d="M409.502384 313.228929c0 24.10796-19.528404 43.651879-43.635071 43.651879H126.084525c-24.106667 0-43.635071-19.545212-43.63507-43.651879s19.528404-43.651879 43.63507-43.651878h239.784081c24.105374 0 43.633778 19.545212 43.633778 43.651878zM941.549253 701.712808c0 24.106667-19.545212 43.651879-43.651879 43.651879H658.131394c-24.10796 0-43.653172-19.545212-43.653172-43.651879 0-24.10796 19.543919-43.654465 43.653172-43.654465h239.76598c24.106667 0.001293 43.651879 19.546505 43.651879 43.654465zM290.373172 658.059636H126.084525c-24.106667 0-43.635071 19.545212-43.63507 43.654465 0 24.106667 19.528404 43.651879 43.63507 43.651879h164.28994v-87.306344z" p-id="1339"></path><path d="M411.565899 536.694949c-91.137293 0-165.019152 73.881859-165.019152 165.019152 0 91.134707 73.881859 165.017859 165.019152 165.017859s165.017859-73.883152 165.017859-165.017859c0-91.138586-73.879273-165.019152-165.017859-165.019152z m-0.016808 256.050425c-50.26004 0-91.015758-40.755717-91.015758-91.031273 0-50.279434 40.755717-91.017051 91.015758-91.01705 50.294949 0 91.033859 40.738909 91.033858 91.01705 0 50.274263-40.738909 91.031273-91.033858 91.031273z" fill="#00CA5E" p-id="1340"></path><path d="M897.898667 269.577051H745.05503v87.303757h152.843637c24.106667 0 43.651879-19.545212 43.651878-43.651879-0.001293-24.106667-19.546505-43.651879-43.651878-43.651878z" p-id="1341"></path><path d="M629.864081 148.211071c-91.138586 0-165.019152 73.881859-165.019152 165.017858 0 91.138586 73.880566 165.017859 165.019152 165.017859 91.134707 0 165.017859-73.880566 165.017858-165.017859s-73.883152-165.017859-165.017858-165.017858z m-0.019394 256.051717c-50.26004 0-91.017051-40.755717-91.017051-91.033859 0-50.276848 40.755717-91.015758 91.017051-91.015757 50.293657 0 91.032566 40.738909 91.032566 91.015757 0.001293 50.278141-40.737616 91.033859-91.032566 91.033859z" fill="#00CA5E" p-id="1342"></path></svg>