<?xml version="1.0" standalone="no"?><!DOCTYPE svg PUBLIC "-//W3C//DTD SVG 1.1//EN" "http://www.w3.org/Graphics/SVG/1.1/DTD/svg11.dtd"><svg t="1559031843159" class="icon" style="" viewBox="0 0 1024 1024" version="1.1" xmlns="http://www.w3.org/2000/svg" p-id="1100" xmlns:xlink="http://www.w3.org/1999/xlink" width="200" height="200"><defs><style type="text/css"></style></defs><path d="M711.649765 876.483232c0 26.701576-21.641051 48.325818-48.325818 48.325819h-302.63596c-26.701576 0-48.324525-21.624242-48.324525-48.325819 0-26.683475 21.622949-48.324525 48.324525-48.324525h302.63596c26.684768 0 48.325818 21.643636 48.325818 48.324525z" fill="#00BD63" p-id="1101"></path><path d="M697.317644 240.014222s-45.299071-149.488485-226.495354-140.427636c0 0-280.182949-10.545131-271.794424 258.204444 0 0-131.368081 61.419313-104.188121 257.215354 0.001293 0 22.127192 123.130828 154.017616 137.205656h489.231515s194.78497-50.782384 194.78497-254.310141c0 0 0-244.29899-235.556202-257.887677z m33.133899 432.571475H236.690896S127.973644 626.293657 168.74229 509.189172c-0.001293 0 13.588687-53.722505 104.186828-87.855839 0 0-39.747232-209.913535 172.136728-242.509575 0 0 169.031111-35.955071 185.725414 158.54804 0 0 160.43701-32.886949 199.316687 108.718545 0 0 67.948606 135.577859-99.656404 226.495354z" p-id="1102"></path></svg>