<?xml version="1.0" standalone="no"?><!DOCTYPE svg PUBLIC "-//W3C//DTD SVG 1.1//EN" "http://www.w3.org/Graphics/SVG/1.1/DTD/svg11.dtd"><svg t="1588299394023" class="icon" viewBox="0 0 1024 1024" version="1.1" xmlns="http://www.w3.org/2000/svg" p-id="5312" xmlns:xlink="http://www.w3.org/1999/xlink" width="200" height="200"><defs><style type="text/css"></style></defs><path d="M475.728 742.4l140.032-88-139.824-107.168-0.208 195.152z m139.984-370.496l-139.472-100.96-0.208 194.08 139.68-93.12zM227.52 336.208l9.968-12.416a16 16 0 0 1 22.208-2.672l167.712 128.56 0.256-241.696a16 16 0 0 1 25.392-12.944l227.84 164.96a16 16 0 0 1-0.512 26.272l-179.52 119.712 180.368 138.24a16 16 0 0 1-1.216 26.256l-228.48 143.568a16 16 0 0 1-24.512-13.568l0.272-245.44-168.288 112.208a16 16 0 0 1-22-4.144l-9.072-12.992a16 16 0 0 1 4.224-22.48l186.464-124.32-188.368-144.384a16 16 0 0 1-2.736-22.72z m569.968 64.4a336.752 336.752 0 0 1 18.32 109.984c0 39.568-6.784 77.488-19.216 112.576a230.4 230.4 0 0 1-2.4 6.384 16 16 0 0 1-24.096 7.296l-12.08-8.48a16 16 0 0 1-5.792-18.704c1.248-3.36 2.256-6.16 3.008-8.432 9.424-28.416 14.528-58.896 14.528-90.64 0-30.016-4.576-58.928-13.04-86.016a255.952 255.952 0 0 0-3.36-9.856 16 16 0 0 1 5.872-18.496l12.128-8.512a16 16 0 0 1 24.16 7.472c0.768 2.016 1.424 3.84 1.968 5.44z m-80.928 51.872c0.544 2.08 1.008 3.936 1.376 5.6 3.792 16.864 5.792 34.448 5.792 52.512a239.2 239.2 0 0 1-8.064 61.824 16 16 0 0 1-24.64 8.912l-12.448-8.736a16 16 0 0 1-6.32-17.008c0.768-3.04 1.344-5.6 1.76-7.664a190.512 190.512 0 0 0 1.088-68.72 175.792 175.792 0 0 0-2.112-10.24 16 16 0 0 1 6.4-16.704l12.512-8.768a16 16 0 0 1 24.656 8.992z" p-id="5313"></path></svg>