<?xml version="1.0" standalone="no"?><!DOCTYPE svg PUBLIC "-//W3C//DTD SVG 1.1//EN" "http://www.w3.org/Graphics/SVG/1.1/DTD/svg11.dtd"><svg t="1588299349572" class="icon" viewBox="0 0 1024 1024" version="1.1" xmlns="http://www.w3.org/2000/svg" p-id="4760" xmlns:xlink="http://www.w3.org/1999/xlink" width="200" height="200"><defs><style type="text/css"></style></defs><path d="M611.648 663.008l40.672 30.96-191.664 120.16a16 16 0 0 1-24.496-13.568l0.272-245.488-168.736 112.256a16 16 0 0 1-21.968-4.16l-9.12-12.992a16 16 0 0 1 4.256-22.496l173.088-115.152 71.2 54.192-0.192 175.712 126.688-79.424z m-126.288-276.912l-48.704-37.072 0.16-141.04a16 16 0 0 1 25.36-12.96l228.432 164.992a16 16 0 0 1-0.512 26.304l-109.104 72.576-40.32-30.688 84.592-56.256-139.792-100.976-0.112 115.12z m-289.968-124.272l9.856-12.608a16 16 0 0 1 22.448-2.752L820.288 709.44a16 16 0 0 1 2.752 22.464l-9.84 12.608a16 16 0 0 1-22.464 2.752L198.144 284.288a16 16 0 0 1-2.752-22.464z" p-id="4761"></path></svg>