<?xml version="1.0" standalone="no"?><!DOCTYPE svg PUBLIC "-//W3C//DTD SVG 1.1//EN" "http://www.w3.org/Graphics/SVG/1.1/DTD/svg11.dtd"><svg t="1588299826818" class="icon" viewBox="0 0 1024 1024" version="1.1" xmlns="http://www.w3.org/2000/svg" p-id="14972" xmlns:xlink="http://www.w3.org/1999/xlink" width="200" height="200"><defs><style type="text/css"></style></defs><path d="M656 618.976V336H208v352h448v-69.024z m48-236.48l129.872-60.928A21.152 21.152 0 0 1 864 340.72v342.56a21.152 21.152 0 0 1-30.128 19.152L704 641.504v83.36a11.136 11.136 0 0 1-11.136 11.136H171.136a11.136 11.136 0 0 1-11.136-11.136V299.136c0-6.16 4.976-11.136 11.136-11.136h521.728c6.16 0 11.136 4.976 11.136 11.136v83.36z m0 53.024v152.96l112 52.544V382.976l-112 52.544z" p-id="14973"></path></svg>