<?xml version="1.0" standalone="no"?><!DOCTYPE svg PUBLIC "-//W3C//DTD SVG 1.1//EN" "http://www.w3.org/Graphics/SVG/1.1/DTD/svg11.dtd"><svg class="icon" width="200px" height="200.00px" viewBox="0 0 1024 1024" version="1.1" xmlns="http://www.w3.org/2000/svg"><path fill="#333333" d="M509.92 176C325.504 176 176 325.504 176 509.92c0 184.416 149.504 333.92 333.92 333.92 184.416 0 333.92-149.504 333.92-333.92C843.84 325.504 694.32 176 509.92 176z m166.64 214.848a16 16 0 0 1 22.624 0l11.328 11.312a16 16 0 0 1 0 22.624l-254.08 254.08a16 16 0 0 1-22.624 0l-159.616-159.632a16 16 0 0 1 0-22.624l11.312-11.312a16 16 0 0 1 22.624 0l136.992 136.992z" /></svg>