<?xml version="1.0" standalone="no"?><!DOCTYPE svg PUBLIC "-//W3C//DTD SVG 1.1//EN" "http://www.w3.org/Graphics/SVG/1.1/DTD/svg11.dtd"><svg class="icon" width="200px" height="200.00px" viewBox="0 0 1024 1024" version="1.1" xmlns="http://www.w3.org/2000/svg"><path fill="#333333" d="M785.04 404.96a56 56 0 0 1 56 56V775.36a56 56 0 0 1-56 56H615.312a56 56 0 0 1-56-56V460.96a56 56 0 0 1 56-56z m0 48H615.312a8 8 0 0 0-8 8V775.36a8 8 0 0 0 8 8h169.728a8 8 0 0 0 8-8V460.96a8 8 0 0 0-8-8zM516.688 202.992l2.608 2.08 165.824 140.592a16 16 0 0 1 1.856 22.56l-10.352 12.192a16 16 0 0 1-22.56 1.856l-165.808-140.592a7.168 7.168 0 0 0-8.032-0.832l-1.216 0.832-236.48 199.68a7.168 7.168 0 0 0-2.416 4.224l-0.112 1.248V709.44c0 3.52 2.528 6.432 5.872 7.04l1.28 0.128h255.6a16 16 0 0 1 16 16v16a16 16 0 0 1-16 16H247.168a55.168 55.168 0 0 1-55.088-52.16L192 709.44V446.848c0-15.088 6.176-29.456 16.992-39.84l2.576-2.304 236.48-199.68a55.168 55.168 0 0 1 68.64-2.016zM700.16 707.2a27.84 27.84 0 1 1 0 55.648 27.84 27.84 0 0 1 0-55.648z" /></svg>