<?xml version="1.0" standalone="no"?><!DOCTYPE svg PUBLIC "-//W3C//DTD SVG 1.1//EN" "http://www.w3.org/Graphics/SVG/1.1/DTD/svg11.dtd"><svg class="icon" width="200px" height="200.00px" viewBox="0 0 1024 1024" version="1.1" xmlns="http://www.w3.org/2000/svg"><path fill="#333333" d="M288 171.136c0-6.16 4.976-11.136 11.136-11.136h425.728c6.16 0 11.136 4.976 11.136 11.136v585.728a11.136 11.136 0 0 1-11.136 11.136H299.136a11.136 11.136 0 0 1-11.136-11.136V171.136zM336 208v512h352V208H336z m336 608a16 16 0 0 1 16 16v16a16 16 0 0 1-16 16H352a16 16 0 0 1-16-16v-16a16 16 0 0 1 16-16h320z m-80-432a16 16 0 0 1 15.888 14.128L608 400v160a16 16 0 0 1-14.128 15.888L592 576h-16a16 16 0 0 1-15.888-14.128L560 560V400a16 16 0 0 1 14.128-15.888L576 384h16z m-144 0a16 16 0 0 1 15.888 14.128L464 400v160a16 16 0 0 1-14.128 15.888L448 576h-16a16 16 0 0 1-15.888-14.128L416 560V400a16 16 0 0 1 14.128-15.888L432 384h16z" /></svg>