<?xml version="1.0" standalone="no"?><!DOCTYPE svg PUBLIC "-//W3C//DTD SVG 1.1//EN" "http://www.w3.org/Graphics/SVG/1.1/DTD/svg11.dtd"><svg t="1588299846866" class="icon" viewBox="0 0 1024 1024" version="1.1" xmlns="http://www.w3.org/2000/svg" p-id="15662" xmlns:xlink="http://www.w3.org/1999/xlink" width="200" height="200"><defs><style type="text/css"></style></defs><path d="M488 472v-112a16 16 0 0 1 16-16h16a16 16 0 0 1 16 16v144a16 16 0 0 1-16 16h-128a16 16 0 0 1-16-16v-16a16 16 0 0 1 16-16h96z m8 279.52v16.048a16 16 0 0 1-17.088 15.952C318.96 774.672 192 642.16 192 480c0-167.904 136.096-304 304-304 163.44 0 296.768 128.992 303.712 290.72a12.736 12.736 0 0 1-12.72 13.28H764.48a12.768 12.768 0 0 1-12.752-12.16C745.36 332.08 633.312 224 496 224c-141.392 0-256 114.608-256 256 0 135.744 105.648 246.816 239.2 255.456a139.2 139.2 0 0 0 1.648 0.096 16 16 0 0 1 15.152 15.984z m225.6-217.968a104.32 104.32 0 0 1 82.16 101.92V744h26.496c6.16 0 11.136 4.976 11.136 11.136v19.328a11.136 11.136 0 0 1-11.136 11.136H563.136a11.136 11.136 0 0 1-11.136-11.136v-19.328c0-6.16 4.976-11.136 11.136-11.136H595.2v-108.528a104.32 104.32 0 0 1 84.8-102.448v-17.888c0-6.16 4.976-11.136 11.136-11.136h19.328c6.16 0 11.136 4.976 11.136 11.136v18.4zM636.8 744h125.36v-108.528a62.672 62.672 0 1 0-125.36 0V744z m38.144 75.04a8.304 8.304 0 0 1 7.84-11.04h47.392a8.288 8.288 0 0 1 7.824 11.008 33.408 33.408 0 0 1-63.04 0.048z" p-id="15663"></path></svg>