<?xml version="1.0" standalone="no"?><!DOCTYPE svg PUBLIC "-//W3C//DTD SVG 1.1//EN" "http://www.w3.org/Graphics/SVG/1.1/DTD/svg11.dtd"><svg class="icon" width="200px" height="200.00px" viewBox="0 0 1024 1024" version="1.1" xmlns="http://www.w3.org/2000/svg"><path fill="#333333" d="M591.072 224c37.632 0 68.128 31.04 68.128 69.328l-0.016 31.168h124.368c25.808 0 46.88 20.528 48.368 46.416l0.08 2.896v356.864C832 768.96 801.504 800 763.872 800H260.128C222.496 800 192 768.96 192 730.672V373.808c0-26.256 20.16-47.728 45.6-49.216l2.848-0.096H364.8v-31.168C364.8 255.04 395.296 224 432.928 224h158.144zM784.48 548.704l-0.912 0.048-198.416-0.016v6.048c0 37.168-28.736 67.52-64.816 69.264l-3.312 0.08h-10.016c-37.632 0-68.128-31.04-68.128-69.344l-0.016-6.048h-198.4l-0.928-0.032v181.968c0 10.848 8.112 19.776 18.496 20.848l2.112 0.112h503.744c11.376 0 20.608-9.392 20.608-20.96l-0.016-181.968z m-267.456-50.208h-10.016c-11.376 0-20.608 9.392-20.608 20.96v35.328c0 11.584 9.232 20.96 20.608 20.96h10.016c11.376 0 20.608-9.376 20.608-20.96v-35.328c0-11.568-9.232-20.96-20.608-20.96z m246.88-125.616H260.112c-11.376 0-20.608 9.376-20.608 20.96v105.6c0 0.336 0.192 0.64 0.464 0.8l0.48 0.144h201.008c8.16-29.024 34.4-50.256 65.52-50.256h10.016c31.12 0 57.376 21.232 65.52 50.24h201.024c0.336 0 0.64-0.176 0.8-0.464l0.128-0.48v-105.6c0-11.568-9.232-20.96-20.608-20.96z m-172.8-100.512h-158.16l-2.112 0.112a20.832 20.832 0 0 0-18.48 20.848v31.184h199.312l0.016-31.184c0-11.568-9.216-20.96-20.592-20.96z" /></svg>