<?xml version="1.0" standalone="no"?><!DOCTYPE svg PUBLIC "-//W3C//DTD SVG 1.1//EN" "http://www.w3.org/Graphics/SVG/1.1/DTD/svg11.dtd"><svg t="1588299943308" class="icon" viewBox="0 0 1024 1024" version="1.1" xmlns="http://www.w3.org/2000/svg" p-id="18422" xmlns:xlink="http://www.w3.org/1999/xlink" width="200" height="200"><defs><style type="text/css"></style></defs><path d="M388.528 396.72h258.752l68.768-91.6c13.984-16.592 33.168-28.096 54.416-31.712 54.88-9.216 105.36 28 105.36 78.256v117.392a16 16 0 0 1-16 16h-16a16 16 0 0 1-16-16v-117.392c0-18.944-22.4-35.456-49.36-30.928a43.12 43.12 0 0 0-24.864 14.256l-82.336 109.728h-306.72l-7.2-9.6-74.272-99.072c-6.88-8.16-16.064-13.664-25.728-15.312-26.512-4.528-49.344 13.28-49.344 35.568v361.68h396.48a16 16 0 0 1 16 16v16a16 16 0 0 1-16 16H200.688c-22.08 0-40.688-17.28-40.688-39.488V356.304c0-52.944 50.432-92.272 105.408-82.88 21.2 3.6 40.384 15.104 55.2 32.768l67.92 90.528zM594.08 600.368c0-46.304 38.56-83.488 85.696-83.488 20.656 0 40.048 7.2 55.184 19.616a86.944 86.944 0 0 1 55.2-19.616c47.12 0 85.664 37.184 85.664 83.488a82.08 82.08 0 0 1-22.352 56.224c-0.72 0.96-1.536 1.872-2.432 2.736l-102.464 99.152a24 24 0 0 1-33.888-0.48l-96.64-99.168a24.512 24.512 0 0 1-3.024-3.776 82 82 0 0 1-20.944-54.688z m138.304 106.992l83.136-80.464c0.56-0.688 1.168-1.344 1.824-1.984 6.72-6.608 10.48-15.296 10.48-24.544 0-19.392-16.672-35.488-37.68-35.488-14.64 0-27.632 7.904-33.888 19.952-8.96 17.248-33.648 17.248-42.592 0-6.256-12.048-19.264-19.952-33.888-19.952-21.008 0-37.696 16.096-37.696 35.488 0 9.232 3.744 17.888 10.432 24.48 1.216 1.2 2.272 2.48 3.168 3.824l76.704 78.688z" p-id="18423"></path></svg>