<?xml version="1.0" standalone="no"?><!DOCTYPE svg PUBLIC "-//W3C//DTD SVG 1.1//EN" "http://www.w3.org/Graphics/SVG/1.1/DTD/svg11.dtd"><svg t="1588300049121" class="icon" viewBox="0 0 1024 1024" version="1.1" xmlns="http://www.w3.org/2000/svg" p-id="21596" xmlns:xlink="http://www.w3.org/1999/xlink" width="200" height="200"><defs><style type="text/css"></style></defs><path d="M651.28 619.28l119.488 119.488a87.312 87.312 0 0 0-119.488-119.488z m84.752 152.64l-117.904-117.904a87.312 87.312 0 0 0 117.92 117.92zM707.52 519.392a16 16 0 0 1-18.24-13.408L648.64 240H341.12l-79.84 519.648h272.256a16 16 0 0 1 16 16v16a16 16 0 0 1-16 16H224a16 16 0 0 1-15.808-18.432l89.648-583.648a16 16 0 0 1 15.808-13.568h362.496a16 16 0 0 1 15.808 13.584l44.784 293.152a16 16 0 0 1-13.408 18.24l-15.808 2.4zM492.64 282.784h16a16 16 0 0 1 16 16v62.608a16 16 0 0 1-16 16h-16a16 16 0 0 1-16-16v-62.608a16 16 0 0 1 16-16z m0 166.96h16a16 16 0 0 1 16 16v62.608a16 16 0 0 1-16 16h-16a16 16 0 0 1-16-16v-62.608a16 16 0 0 1 16-16z m0 166.944h16a16 16 0 0 1 16 16v62.624a16 16 0 0 1-16 16h-16a16 16 0 0 1-16-16v-62.624a16 16 0 0 1 16-16zM695.44 829.92a135.312 135.312 0 1 1 0-270.608 135.312 135.312 0 0 1 0 270.608z" p-id="21597"></path></svg>