<?xml version="1.0" standalone="no"?><!DOCTYPE svg PUBLIC "-//W3C//DTD SVG 1.1//EN" "http://www.w3.org/Graphics/SVG/1.1/DTD/svg11.dtd"><svg t="1588299468824" class="icon" viewBox="0 0 1024 1024" version="1.1" xmlns="http://www.w3.org/2000/svg" p-id="7382" xmlns:xlink="http://www.w3.org/1999/xlink" width="200" height="200"><defs><style type="text/css"></style></defs><path d="M192 308.864v-25.728c0-6.16 4.976-11.136 11.136-11.136h601.728c6.16 0 11.136 4.976 11.136 11.136v25.728a11.136 11.136 0 0 1-11.136 11.136H203.136a11.136 11.136 0 0 1-11.136-11.136z m0 208v-25.728c0-6.16 4.976-11.136 11.136-11.136h217.728c6.16 0 11.136 4.976 11.136 11.136v25.728a11.136 11.136 0 0 1-11.136 11.136H203.136a11.136 11.136 0 0 1-11.136-11.136z m554.032 76.832c10.48-10.112 16.368-23.488 16.368-37.696 0-29.776-26-54.4-58.624-54.4-22.72 0-42.928 12.08-52.672 30.512a21.6 21.6 0 0 1-38.208 0c-9.744-18.432-29.952-30.512-52.672-30.512-32.64 0-58.624 24.624-58.624 54.4 0 14.176 5.856 27.52 16.288 37.616 1.296 1.264 2.4 2.624 3.312 4.064l107.248 108.096 115.6-109.92c0.608-0.736 1.264-1.472 1.984-2.16zM458.4 556c0-54.176 45.84-97.6 101.824-97.6 27.472 0 53.072 10.544 71.776 28.352a104.016 104.016 0 0 1 71.776-28.352c55.984 0 101.824 43.424 101.824 97.6a95.136 95.136 0 0 1-26.96 66.176 22.24 22.24 0 0 1-2.496 2.784l-133.264 126.688a21.6 21.6 0 0 1-30.208-0.432l-125.696-126.688a21.984 21.984 0 0 1-3.12-3.968 95.024 95.024 0 0 1-25.456-64.56zM192 724.864v-25.728c0-6.16 4.976-11.136 11.136-11.136h217.728c6.16 0 11.136 4.976 11.136 11.136v25.728a11.136 11.136 0 0 1-11.136 11.136H203.136a11.136 11.136 0 0 1-11.136-11.136z" p-id="7383"></path></svg>