<?xml version="1.0" standalone="no"?><!DOCTYPE svg PUBLIC "-//W3C//DTD SVG 1.1//EN" "http://www.w3.org/Graphics/SVG/1.1/DTD/svg11.dtd"><svg t="1588299939774" class="icon" viewBox="0 0 1024 1024" version="1.1" xmlns="http://www.w3.org/2000/svg" p-id="18284" xmlns:xlink="http://www.w3.org/1999/xlink" width="200" height="200"><defs><style type="text/css"></style></defs><path d="M722.784 395.424l123.392-59.248a30.4 30.4 0 0 1 43.568 27.408v306.576a30.4 30.4 0 0 1-43.568 27.408l-123.392-59.248v96.288a16 16 0 0 1-16 16H160a16 16 0 0 1-16-16V288a16 16 0 0 1 16-16h546.784a16 16 0 0 1 16 16v107.424z m-384 229.616v-16a16 16 0 0 1 16-16h168.352a16 16 0 0 1 16 16v16a16 16 0 0 1-16 16H354.784a16 16 0 0 1-16-16zM192 702.608h482.784V320H192v382.608z m545.392-110.512l104.352 50.08V391.568l-104.352 50.096v150.448z" p-id="18285"></path></svg>