<?xml version="1.0" standalone="no"?><!DOCTYPE svg PUBLIC "-//W3C//DTD SVG 1.1//EN" "http://www.w3.org/Graphics/SVG/1.1/DTD/svg11.dtd"><svg t="1588299965172" class="icon" viewBox="0 0 1024 1024" version="1.1" xmlns="http://www.w3.org/2000/svg" p-id="19112" xmlns:xlink="http://www.w3.org/1999/xlink" width="200" height="200"><defs><style type="text/css"></style></defs><path d="M523.472 494.608a16 16 0 0 1 16 16v54.608h123.456a16 16 0 0 1 16 16v16a16 16 0 0 1-16 16h-155.456a16 16 0 0 1-16-16v-86.608a16 16 0 0 1 16-16h16z m242.976-221.472c41.344-7.568 77.376 23.76 77.376 63.456v408.56a16.64 16.64 0 0 1-16.688 16.592H192.688A16.64 16.64 0 0 1 176 745.152V336.592c0-39.68 36.032-71.024 77.392-63.456 16 2.912 30.016 12.448 40.032 25.184l75.104 95.36h282.752l75.12-95.36c10.016-12.736 24.048-22.272 40.048-25.184zM224 713.744h571.84V336.592c0-10.368-9.52-18.304-20.784-16.24-3.376 0.624-7.44 3.232-10.944 7.68l-89.552 113.648H345.248l-14.416-18.304L255.68 328c-3.488-4.416-7.536-7.04-10.944-7.648-11.248-2.064-20.752 5.872-20.752 16.24v377.152z" p-id="19113"></path></svg>