<?xml version="1.0" standalone="no"?><!DOCTYPE svg PUBLIC "-//W3C//DTD SVG 1.1//EN" "http://www.w3.org/Graphics/SVG/1.1/DTD/svg11.dtd"><svg class="icon" width="200px" height="200.00px" viewBox="0 0 1024 1024" version="1.1" xmlns="http://www.w3.org/2000/svg"><path fill="#333333" d="M544.512 201.696l2.416 1.936 279.472 237.76a16 16 0 0 1 1.856 22.512l-10.352 12.256a16 16 0 0 1-22.56 1.888l-0.032-0.032L515.936 240.32a0.928 0.928 0 0 0-0.816-0.192l-0.384 0.192-274.464 232.576-0.256 0.32-0.08 0.384v309.36c0 0.352 0.192 0.64 0.464 0.8l0.48 0.144h555.744a16 16 0 0 1 16 16V816a16 16 0 0 1-16 16H240.864a48.944 48.944 0 0 1-48.784-46.16l-0.08-2.88V473.6c0-13.328 5.408-26.032 14.88-35.232l2.464-2.24 274.464-232.56a48.736 48.736 0 0 1 60.704-1.872z m156.096 277.92l116.912 116.896a16 16 0 0 1 0 22.624l-117.392 117.392a16 16 0 0 1-22.624 0l-11.264-11.264a16 16 0 0 1 0-22.624l72.192-72.24H409.6a16 16 0 0 1-16-16v-15.92a16 16 0 0 1 16-16l325.856-0.016-68.848-68.848a16 16 0 0 1-1.344-21.12l1.328-1.504 11.392-11.392a16 16 0 0 1 22.624 0z" /></svg>