<?xml version="1.0" standalone="no"?><!DOCTYPE svg PUBLIC "-//W3C//DTD SVG 1.1//EN" "http://www.w3.org/Graphics/SVG/1.1/DTD/svg11.dtd"><svg class="icon" width="200px" height="200.00px" viewBox="0 0 1024 1024" version="1.1" xmlns="http://www.w3.org/2000/svg"><path fill="#333333" d="M704 768a16 16 0 0 1 16 16v16a16 16 0 0 1-16 16H336a16 16 0 0 1-16-16v-16a16 16 0 0 1 16-16h368z m96-112a16 16 0 0 1 16 16v16a16 16 0 0 1-16 16H240a16 16 0 0 1-16-16v-16a16 16 0 0 1 16-16h560zM520 376c106.032 0 192 85.968 192 192 0 2.448-0.096 5.44-0.304 8.928a16 16 0 0 1-15.968 15.072h-16.016a16 16 0 0 1-15.968-17.04c0.16-2.656 0.256-4.976 0.256-6.96a144 144 0 0 0-288 0c0 1.984 0.08 4.304 0.256 6.96a16 16 0 0 1-14.896 17.008l-0.528 0.032h-16.56a16 16 0 0 1-15.968-15.072 158.688 158.688 0 0 1-0.304-8.928c0-106.032 85.968-192 192-192zM848 544a16 16 0 0 1 16 16v16a16 16 0 0 1-16 16h-80a16 16 0 0 1-16-16v-16a16 16 0 0 1 16-16h80z m-592 0a16 16 0 0 1 16 16v16a16 16 0 0 1-16 16h-80a16 16 0 0 1-16-16v-16a16 16 0 0 1 16-16h80z m501.6-224.896l11.296 11.312a16 16 0 0 1 0 22.624l-56.56 56.576a16 16 0 0 1-22.624 0l-11.328-11.328a16 16 0 0 1 0-22.624l56.576-56.56a16 16 0 0 1 22.624 0z m-452.56 0l56.576 56.56a16 16 0 0 1 0 22.624l-11.328 11.328a16 16 0 0 1-22.624 0l-56.56-56.576a16 16 0 0 1 0-22.624l11.312-11.312a16 16 0 0 1 22.624 0zM528 224a16 16 0 0 1 16 16v80a16 16 0 0 1-16 16h-16a16 16 0 0 1-16-16v-80a16 16 0 0 1 16-16h16z" /></svg>