<?xml version="1.0" standalone="no"?><!DOCTYPE svg PUBLIC "-//W3C//DTD SVG 1.1//EN" "http://www.w3.org/Graphics/SVG/1.1/DTD/svg11.dtd"><svg t="1588299835827" class="icon" viewBox="0 0 1024 1024" version="1.1" xmlns="http://www.w3.org/2000/svg" p-id="15248" xmlns:xlink="http://www.w3.org/1999/xlink" width="200" height="200"><defs><style type="text/css"></style></defs><path d="M621.92 528.496c13.152 6.928 27.872 16.288 41.264 29.872 1.056-1.008 2-1.952 2.64-2.592l35.568-35.568A261.28 261.28 0 0 0 520.432 448a261.28 261.28 0 0 0-180.944 72.208l36.656 36.656c0.464 0.464 0.976 0.896 1.504 1.312a211.2 211.2 0 0 1 40.336-28.896c0.48-5.12 0.992-14.064 1.056-29.328l0.048-17.264 16.4-5.424c53.216-17.632 114.352-17.696 172.144-0.192l19.536 5.904-2.704 20.24a301.264 301.264 0 0 0-2.544 25.28z m39.536 81.44c-0.496 0-0.992 0-1.472-0.032-7.28-0.288-17.904-2.896-27.152-13.744-9.52-10.944-22.112-19.952-40.56-28.848-18.272-6.128-19.952-26.352-17.888-49.36-36.512-8.048-73.68-7.968-107.616 0.24-0.864 28.384-4.384 42.576-18.336 49.312a163.568 163.568 0 0 0-43.696 31.168c-17.984 17.92-45.04 9.6-62.512-7.856l-41.776-41.776c-8.032-8.016-12.448-18.288-12.448-28.912 0-10.608 4.416-20.864 12.448-28.896C359.28 432.4 437.408 400 520.432 400c83.04 0 161.184 32.4 220 91.248 16.48 16.464 16.48 41.328 0 57.792l-40.672 40.672c-7.12 7.12-20.208 20.224-38.304 20.224zM512 800c159.056 0 288-128.944 288-288s-128.944-288-288-288-288 128.944-288 288 128.944 288 288 288z m0 48c-185.568 0-336-150.432-336-336s150.432-336 336-336 336 150.432 336 336-150.432 336-336 336z" p-id="15249"></path></svg>