<?xml version="1.0" standalone="no"?><!DOCTYPE svg PUBLIC "-//W3C//DTD SVG 1.1//EN" "http://www.w3.org/Graphics/SVG/1.1/DTD/svg11.dtd"><svg class="icon" width="200px" height="200.00px" viewBox="0 0 1024 1024" version="1.1" xmlns="http://www.w3.org/2000/svg"><path fill="#333333" d="M477.696 176c5.376-0.032 10.8 1.712 15.296 5.376 52.416 42.528 88.16 84.96 112.016 128.368 8.8 16 15.472 31.072 21.568 47.632l3.488 9.904c1.568-3.776 3.152-8 4.752-12.672 1.664-4.8 3.296-9.888 5.12-15.936l5.152-17.088 2-6.16 1.184-3.2c1.088-2.704 2.176-4.944 3.776-7.28 1.92-2.752 4.176-5.2 7.648-7.36a24.272 24.272 0 0 1 24.544-0.752l3.68 1.984 7.84 8.848c117.712 135.616 133.808 290.624 58.016 409.024-72.64 113.44-212.192 162.304-341.152 110.912-174.832-69.664-216.48-221.136-126.72-442.368l5.664-13.632 4.256-10.016a16 16 0 0 1 25.088-5.936l8.288 7.04a203.152 203.152 0 0 1 43.84 51.808l3.296-3.152c40.192-39.68 66.4-110.592 77.2-213.824A24 24 0 0 1 477.696 176z m17.68 71.28l-1.28 7.712c-18.528 107.232-57.072 179.84-117.232 216.608l-8.08 4.944a16 16 0 0 1-23.2-7.712l-3.52-8.8a152.208 152.208 0 0 0-20-35.52c-69.856 186.16-33.216 302.08 108.32 358.496 107.088 42.672 222.48 2.272 282.976-92.208 59.152-92.416 51.92-212.064-31.856-324.4l-2.832 8.208c-12.688 35.568-36.192 55.776-49.84 56.304-14.624 0.56-28.896-9.28-36.192-26.24a218.832 218.832 0 0 1-3.488-9.2l-6.96-19.664-3.36-8.96a284.8 284.8 0 0 0-15.872-33.968c-15.68-28.512-37.488-56.864-67.584-85.6z m4.368 368.8a16 16 0 0 1 14.88 10.128c1.056 2.672 2.24 4.72 3.52 6.128a23.984 23.984 0 0 0 38.288-4 14.512 14.512 0 0 0 1.008-2.112 16 16 0 0 1 14.896-10.16h24.4a10.208 10.208 0 0 1 10.08 11.888l-0.624 3.28a72.016 72.016 0 0 1-140.592 0.896l-0.24-1.44-0.08-1.488c0-7.248 5.888-13.12 13.136-13.12z m-43.936-128.032a16 16 0 0 1 16 16v48a16 16 0 0 1-16 16h-16a16 16 0 0 1-16-16v-48a16 16 0 0 1 16-16h16z m175.984 0a16 16 0 0 1 16 16v48a16 16 0 0 1-16 16h-16a16 16 0 0 1-16-16v-48a16 16 0 0 1 16-16h16z" /></svg>