<?xml version="1.0" standalone="no"?><!DOCTYPE svg PUBLIC "-//W3C//DTD SVG 1.1//EN" "http://www.w3.org/Graphics/SVG/1.1/DTD/svg11.dtd"><svg t="1588299996862" class="icon" viewBox="0 0 1024 1024" version="1.1" xmlns="http://www.w3.org/2000/svg" p-id="19940" xmlns:xlink="http://www.w3.org/1999/xlink" width="200" height="200"><defs><style type="text/css"></style></defs><path d="M681.84 705.84l49.248 119.36a16 16 0 0 1-14.784 22.112H313.984a16 16 0 0 1-14.8-22.08l49.04-119.52C273.104 653.072 224 565.84 224 467.152 224 306.336 354.336 176 515.12 176c160.8 0 291.136 130.336 291.136 291.136 0 98.784-49.184 186.08-124.416 238.72zM640 730.24a290 290 0 0 1-124.864 28.048c-44.752 0-87.152-10.08-125.04-28.144l-28.384 69.184H668.48L640 730.224z m118.272-263.088C758.256 332.848 649.408 224 515.12 224 380.848 224 272 332.848 272 467.136s108.848 243.136 243.12 243.136c134.288 0 243.136-108.848 243.136-243.136z m-133.568 0a109.568 109.568 0 1 0-219.12 0 109.568 109.568 0 0 0 219.12 0z m48 0c0 87.008-70.544 157.552-157.568 157.552-87.008 0-157.552-70.544-157.552-157.552 0-87.04 70.544-157.568 157.552-157.568 87.04 0 157.568 70.544 157.568 157.568z m-114.768 0a42.784 42.784 0 1 0-85.568 0 42.784 42.784 0 0 0 85.568 0z m48 0a90.784 90.784 0 1 1-181.568 0 90.784 90.784 0 0 1 181.568 0z" p-id="19941"></path></svg>