<?xml version="1.0" standalone="no"?><!DOCTYPE svg PUBLIC "-//W3C//DTD SVG 1.1//EN" "http://www.w3.org/Graphics/SVG/1.1/DTD/svg11.dtd"><svg t="1588300062539" class="icon" viewBox="0 0 1024 1024" version="1.1" xmlns="http://www.w3.org/2000/svg" p-id="22148" xmlns:xlink="http://www.w3.org/1999/xlink" width="200" height="200"><defs><style type="text/css"></style></defs><path d="M333.76 717.216h494.08v-356.64c0-25.312-23.072-44.592-49.088-39.84-9.408 1.728-18.528 7.584-25.488 16.448l-82.352 104.48H364.896l-7.2-9.136-75.136-95.36c-6.96-8.848-16.08-14.72-25.488-16.432-26.016-4.752-49.072 14.528-49.072 39.84v356.64h71.776l27.728-53.92a101.92 101.92 0 1 1 42.944 21.456l-16.704 32.464zM715.52 307.488c13.92-17.696 33.152-30.048 54.592-33.968 55.52-10.144 105.696 31.808 105.696 87.072v364.032a40.64 40.64 0 0 1-40.688 40.592H200.688A40.64 40.64 0 0 1 160 724.624V360.592c0-55.28 50.192-97.216 105.696-87.072 21.44 3.92 40.672 16.272 54.576 33.952l67.904 86.208h259.456l67.904-86.192zM427.136 585.392a53.92 53.92 0 1 0-107.84 0.016 53.92 53.92 0 0 0 107.84-0.016z m337.392 0a90.784 90.784 0 1 1-181.584 0 90.784 90.784 0 0 1 181.584 0z m-48 0a42.768 42.768 0 1 0-85.552 0 42.768 42.768 0 0 0 85.552 0z" p-id="22149"></path></svg>