<?xml version="1.0" standalone="no"?><!DOCTYPE svg PUBLIC "-//W3C//DTD SVG 1.1//EN" "http://www.w3.org/Graphics/SVG/1.1/DTD/svg11.dtd"><svg t="1588299701431" class="icon" viewBox="0 0 1024 1024" version="1.1" xmlns="http://www.w3.org/2000/svg" p-id="11246" xmlns:xlink="http://www.w3.org/1999/xlink" width="200" height="200"><defs><style type="text/css"></style></defs><path d="M617.2 623.632c-8.256 7.648-20.048 20.72-35.04 38.976l-12.96 15.776-17.648-10.24c-84.352-49.024-152.384-121.216-190.832-204.928l-7.2-15.68 12.576-11.84c17.232-16.176 29.824-28.912 37.632-37.952a122.24 122.24 0 0 0 4.08-4.96 340.08 340.08 0 0 1-12.288-98.64 22.56 22.56 0 0 0-1.296-0.704 47.248 47.248 0 0 0-17.936-4.32l-99.424-3.456c-3.952-0.144-4.432 0.32-4.576 4.272-8.864 253.984 189.264 466.464 443.264 475.328 3.744 0.128 4.432-0.496 4.56-4.272l3.392-96.8c0.256-7.568 0.272-11.36-0.08-15.536-0.704-8.352-0.32-7.792-1.84-7.728-33.968 1.216-66.112-5.36-102.528-18.976a102.768 102.768 0 0 0-1.856 1.68z m-58.688-7.488c10.208-11.84 18.864-21.056 26.08-27.728 17.44-16.16 29.568-23.152 45.312-13.696 33.6 13.12 61.456 19.264 89.76 18.24 33.072-1.44 48.976 20.88 51.584 51.632 0.576 6.688 0.56 11.84 0.224 21.28l-3.376 96.8c-1.072 30.352-24.08 51.616-54.24 50.56-280.48-9.792-499.328-244.48-489.536-524.976 1.056-30.448 23.776-51.632 54.224-50.56l99.408 3.472c33.888 1.184 66.816 17.824 65.648 51.008a292.64 292.64 0 0 0 12.56 95.088c5.792 18.72-5.136 33.76-44.32 71.248 32.32 62.4 83.712 117.248 146.672 157.632z m109.552-295.52l91.92-91.936a16 16 0 0 1 22.64 0l11.424 11.424a16 16 0 0 1 0 22.624l-93.504 93.52h14.48a16 16 0 0 1 11.312 4.672l20.016 20.016a14.464 14.464 0 0 1-10.24 24.688h-106.32a11.136 11.136 0 0 1-11.12-11.12v-106.32a14.464 14.464 0 0 1 24.688-10.24l20 20a16 16 0 0 1 4.704 11.328v11.344z" p-id="11247"></path></svg>