<?xml version="1.0" standalone="no"?><!DOCTYPE svg PUBLIC "-//W3C//DTD SVG 1.1//EN" "http://www.w3.org/Graphics/SVG/1.1/DTD/svg11.dtd"><svg t="1588300020400" class="icon" viewBox="0 0 1024 1024" version="1.1" xmlns="http://www.w3.org/2000/svg" p-id="20768" xmlns:xlink="http://www.w3.org/1999/xlink" width="200" height="200"><defs><style type="text/css"></style></defs><path d="M192 706.08V224h649.04v482.08H594.336l-77.808 90.8-77.824-90.8H192zM366.256 498.56a33.488 33.488 0 1 0 0-66.992 33.488 33.488 0 0 0 0 66.992z m150.272 0a33.488 33.488 0 1 0 0-66.992 33.488 33.488 0 0 0 0 66.992z m150.24 0a33.488 33.488 0 1 0 0-66.992 33.488 33.488 0 0 0 0 66.992z" p-id="20769"></path></svg>