<?xml version="1.0" standalone="no"?><!DOCTYPE svg PUBLIC "-//W3C//DTD SVG 1.1//EN" "http://www.w3.org/Graphics/SVG/1.1/DTD/svg11.dtd"><svg t="1588299865859" class="icon" viewBox="0 0 1024 1024" version="1.1" xmlns="http://www.w3.org/2000/svg" p-id="16352" xmlns:xlink="http://www.w3.org/1999/xlink" width="200" height="200"><defs><style type="text/css"></style></defs><path d="M304 257.36v505.712L717.824 510.24 304 257.36z m22.384 548.288A46.256 46.256 0 0 1 256 766.176V254.256a46.256 46.256 0 0 1 70.384-39.472l418.88 255.952a46.256 46.256 0 0 1 0 78.96L326.4 805.648z m173.408-277.76l-91.968 45.984a11.136 11.136 0 0 1-16.112-9.952v-91.984a11.136 11.136 0 0 1 16.112-9.952l91.968 46a11.136 11.136 0 0 1 0 19.904z" p-id="16353"></path></svg>