<?xml version="1.0" standalone="no"?><!DOCTYPE svg PUBLIC "-//W3C//DTD SVG 1.1//EN" "http://www.w3.org/Graphics/SVG/1.1/DTD/svg11.dtd"><svg t="1588299545976" class="icon" viewBox="0 0 1024 1024" version="1.1" xmlns="http://www.w3.org/2000/svg" p-id="9452" xmlns:xlink="http://www.w3.org/1999/xlink" width="200" height="200"><defs><style type="text/css"></style></defs><path d="M448 456v-27.84C448 377.6 487.04 336 536 336s88 41.6 88 92.16v27.84h44.864c6.16 0 11.136 4.976 11.136 11.136v201.728a11.136 11.136 0 0 1-11.136 11.136H387.136a11.136 11.136 0 0 1-11.136-11.136V467.136c0-6.16 4.976-11.136 11.136-11.136H448z m48 0h80v-27.84c0-24.704-18.256-44.16-40-44.16S496 403.456 496 428.16v27.84z m304 64C800 365.36 674.64 240 520 240S240 365.36 240 520 365.36 800 520 800 800 674.64 800 520z m48 0C848 701.152 701.152 848 520 848S192 701.152 192 520 338.848 192 520 192 848 338.848 848 520z m-424 112h208v-128h-208v128z m136-92.864v41.728a11.136 11.136 0 0 1-11.136 11.136h-25.728a11.136 11.136 0 0 1-11.136-11.136v-41.728c0-6.16 4.976-11.136 11.136-11.136h25.728c6.16 0 11.136 4.976 11.136 11.136z" p-id="9453"></path></svg>