<?xml version="1.0" standalone="no"?><!DOCTYPE svg PUBLIC "-//W3C//DTD SVG 1.1//EN" "http://www.w3.org/Graphics/SVG/1.1/DTD/svg11.dtd"><svg class="icon" width="200px" height="200.00px" viewBox="0 0 1024 1024" version="1.1" xmlns="http://www.w3.org/2000/svg"><path fill="#333333" d="M493.936 220.464c175.584 0 317.92 144.064 317.92 321.76C811.872 719.936 669.536 864 493.952 864S176 719.936 176 542.24c0-177.712 142.352-321.776 317.936-321.776z m0 54.208c-146.016 0-264.368 119.792-264.368 267.552 0 147.776 118.352 267.568 264.368 267.568s264.368-119.792 264.368-267.568c0-147.76-118.352-267.552-264.368-267.552z m0 347.92c14.624 0 26.464 12 26.464 26.784 0 14.8-11.84 26.8-26.464 26.8-14.624 0-26.464-12-26.464-26.8 0-14.784 11.84-26.784 26.464-26.784z m-148.032-134.24a16 16 0 0 1 16 16v11.088l0.096 2.288a26.288 26.288 0 0 0 26.064 24.192c14.448 0 26.16-11.856 26.16-26.48v-11.104a16 16 0 0 1 16-16h21.552a16 16 0 0 1 16 16v11.104l-0.064 3.504c-1.824 42.928-36.784 77.184-79.648 77.184-44.032 0-79.728-36.128-79.728-80.688v-11.104a16 16 0 0 1 16-16z m211.744 0a16 16 0 0 1 16 16v11.088l0.096 2.288a26.288 26.288 0 0 0 26.08 24.192c14.432 0 26.144-11.856 26.144-26.48v-11.104a16 16 0 0 1 16-16h21.552a16 16 0 0 1 16 16v11.104l-0.064 3.504c-1.808 42.928-36.784 77.184-79.648 77.184-44.032 0-79.712-36.128-79.712-80.688v-11.104a16 16 0 0 1 16-16z m291.2-312.032a16 16 0 0 1 16 16v21.568a15.968 15.968 0 0 1-1.056 5.76c-0.832 3.008-2.56 5.824-5.12 8l-45.504 38.464h35.68a16 16 0 0 1 16 16v21.568a16 16 0 0 1-16 16h-112.256a16 16 0 0 1-16-16v-21.568c0-4.88 2.192-9.264 5.648-12.192a14.672 14.672 0 0 1 2.128-2.208l44.736-37.84h-36.512a16 16 0 0 1-16-16V192.32a16 16 0 0 1 16-16h112.272z" /></svg>