<?xml version="1.0" standalone="no"?><!DOCTYPE svg PUBLIC "-//W3C//DTD SVG 1.1//EN" "http://www.w3.org/Graphics/SVG/1.1/DTD/svg11.dtd"><svg class="icon" width="200px" height="200.00px" viewBox="0 0 1024 1024" version="1.1" xmlns="http://www.w3.org/2000/svg"><path fill="#333333" d="M496 618.08h16a16 16 0 0 1 16 16v23.664a16 16 0 0 1-16 16h-16a16 16 0 0 1-16-16V634.08a16 16 0 0 1 16-16z m-224 77.28l233.376 129.136 241.76-129.376V208H272v487.36zM795.136 176v538.288a16 16 0 0 1-8.448 14.112L512.672 875.04a16 16 0 0 1-15.296-0.112l-265.12-146.72A16 16 0 0 1 224 714.24V176a16 16 0 0 1 16-16h539.136a16 16 0 0 1 16 16z m-148.384 225.072a133.792 133.792 0 0 1-119.296 133.008v30.656a16 16 0 0 1-16 16h-16a16 16 0 0 1-15.904-16.08c0.256-45.232 0.224-67.84-0.096-67.84 0-11.648 8.496-11.792 12.752-11.424l13.296 1.136a85.76 85.76 0 1 0-77.104-99.856c-0.8 4.704-2.32 14.4-14.336 14.4h-20.32c-16.16 0-14.304-9.2-13.84-13.744a133.328 133.328 0 0 1 36.24-78.56 133.76 133.76 0 0 1 230.608 92.288z" /></svg>