<?xml version="1.0" standalone="no"?><!DOCTYPE svg PUBLIC "-//W3C//DTD SVG 1.1//EN" "http://www.w3.org/Graphics/SVG/1.1/DTD/svg11.dtd"><svg t="1588300107222" class="icon" viewBox="0 0 1024 1024" version="1.1" xmlns="http://www.w3.org/2000/svg" p-id="23528" xmlns:xlink="http://www.w3.org/1999/xlink" width="200" height="200"><defs><style type="text/css"></style></defs><path d="M626.56 664.96l52.96 190.576a16 16 0 0 1-15.424 20.288H353.664a16 16 0 0 1-15.424-20.272l52.24-188.752C301.408 623.6 240 532.32 240 426.688 240 279.392 359.392 160 506.672 160c147.296 0 266.688 119.392 266.688 266.688 0 104.16-59.728 194.384-146.784 238.288z m-44.88 17.728c-23.792 6.96-48.96 10.688-75.008 10.688-24.624 0-48.464-3.344-71.104-9.584l-39.84 144.032h226.256l-40.32-145.136z m-80.8 46.704h16a16 16 0 0 1 16 16v23.648a16 16 0 0 1-16 16h-16a16 16 0 0 1-16-16v-23.648a16 16 0 0 1 16-16z m224.48-302.704c0-120.8-97.904-218.688-218.688-218.688C385.904 208 288 305.904 288 426.688c0 120.768 97.92 218.688 218.672 218.688 120.784 0 218.688-97.92 218.688-218.688z" p-id="23529"></path></svg>