<?xml version="1.0" standalone="no"?><!DOCTYPE svg PUBLIC "-//W3C//DTD SVG 1.1//EN" "http://www.w3.org/Graphics/SVG/1.1/DTD/svg11.dtd"><svg t="1588299760683" class="icon" viewBox="0 0 1024 1024" version="1.1" xmlns="http://www.w3.org/2000/svg" p-id="13316" xmlns:xlink="http://www.w3.org/1999/xlink" width="200" height="200"><defs><style type="text/css"></style></defs><path d="M511.744 818.464l0.32 0.192 0.4-0.24c8.8-5.472 18.864-11.952 29.664-19.2a1035.936 1035.936 0 0 0 89.92-67.456c78.88-66.608 125.888-130.464 125.888-182.304V320.048c0-26.56 3.056-20.096-5.824-22-2.88-0.624-5.76-1.168-12.592-2.4-37.616-6.88-75.248-17.6-111.392-32.96a809.12 809.12 0 0 1-105.392-54.144 171.52 171.52 0 0 0-10.576-6.208c-1.92 0.96-4.352 2.4-10.56 6.208a797.6 797.6 0 0 1-105.776 54.16c-36.096 15.328-108.832 35.6-146.48 42.496-11.424 2.08-22.832-5.408-24.928-16.752-2.112-11.328 5.888-22.224 17.312-24.32 34.72-6.352 104.512-25.792 137.584-39.84a755.84 755.84 0 0 0 100.224-51.296c17.664-10.8 22.032-12.944 32.448-12.992 10.56-0.048 15.2 2.208 32.832 13.008a767.136 767.136 0 0 0 99.872 51.28c33.088 14.064 67.744 23.936 102.464 30.288 7.28 1.328 10.368 1.92 13.824 2.656 38.992 8.352 39.024 8.368 39.024 62.944v229.28c0 68.064-52.992 140.048-140.704 214.096C603.824 810.4 524 864 512 864c-11.984 0-90.976-53.664-146.304-100.688C278.56 689.28 225.392 617.472 224 549.888V285.04c0-11.52 9.424-16.32 21.04-16.32a20.96 20.96 0 0 1 21.024 20.88v259.856c1.072 51.424 48.432 115.376 126.992 182.144a1051.52 1051.52 0 0 0 89.28 67.6c10.72 7.28 20.688 13.76 29.408 19.264zM688.032 388.8l11.488 11.632a16 16 0 0 1 0 22.496L489.84 635.2a16 16 0 0 1-22.768 0l-110.592-111.952a16 16 0 0 1 0-22.496l11.488-11.632a16 16 0 0 1 22.752 0l87.728 88.8L665.28 388.8a16 16 0 0 1 22.752 0z" p-id="13317"></path></svg>