<?xml version="1.0" standalone="no"?><!DOCTYPE svg PUBLIC "-//W3C//DTD SVG 1.1//EN" "http://www.w3.org/Graphics/SVG/1.1/DTD/svg11.dtd"><svg class="icon" width="200px" height="200.00px" viewBox="0 0 1024 1024" version="1.1" xmlns="http://www.w3.org/2000/svg"><path fill="#333333" d="M385.392 192h16a16 16 0 0 1 16 16v57.04a16 16 0 0 1-16 16h-16a16 16 0 0 1-16-16V208a16 16 0 0 1 16-16z m111.296 0h16a16 16 0 0 1 16 16v57.04a16 16 0 0 1-16 16h-16a16 16 0 0 1-16-16V208a16 16 0 0 1 16-16zM608 192h16a16 16 0 0 1 16 16v57.04a16 16 0 0 1-16 16h-16a16 16 0 0 1-16-16V208a16 16 0 0 1 16-16z m84.16 52.528v-16a16 16 0 0 1 16-16h77.232a16 16 0 0 1 16 16V812.16a16 16 0 0 1-16 16H224a16 16 0 0 1-16-16V228.528a16 16 0 0 1 16-16h69.92a16 16 0 0 1 16 16v16a16 16 0 0 1-16 16H256V780.16h497.392V260.528H708.16a16 16 0 0 1-16-16zM461.664 597.104L652.8 408.752a16 16 0 0 1 22.624 0.16l11.232 11.392a16 16 0 0 1-0.16 22.624l-213.76 210.688a16 16 0 0 1-22.56-0.096L337.6 540.704a16 16 0 0 1 0.032-22.64l11.328-11.296a16 16 0 0 1 22.624 0.032l90.08 90.304z" /></svg>