<?xml version="1.0" standalone="no"?><!DOCTYPE svg PUBLIC "-//W3C//DTD SVG 1.1//EN" "http://www.w3.org/Graphics/SVG/1.1/DTD/svg11.dtd"><svg class="icon" width="200px" height="200.00px" viewBox="0 0 1024 1024" version="1.1" xmlns="http://www.w3.org/2000/svg"><path fill="#333333" d="M320.544 437.968a16 16 0 0 1 16 16v16a16 16 0 0 1-16 16H240v256h539.04v-256H688a16 16 0 0 1-16-16v-16a16 16 0 0 1 16-16h123.04a16 16 0 0 1 16 16v320a16 16 0 0 1-16 16H208a16 16 0 0 1-16-16v-320a16 16 0 0 1 16-16z m201.92-194.576l135.104 105.44a16 16 0 0 1 2.768 22.448l-9.856 12.608a16 16 0 0 1-22.464 2.752L536.96 315.52l-0.768 274.56a16 16 0 0 1-14.176 15.872l-1.856 0.096-16-0.048a16 16 0 0 1-15.968-16.048l0.768-276.528-94.208 71.008a16 16 0 0 1-21.12-1.6l-1.28-1.536-9.616-12.752a16 16 0 0 1 3.136-22.4l0.032-0.032 137.136-102.88a16 16 0 0 1 19.456 0.16z" /></svg>