<?xml version="1.0" standalone="no"?><!DOCTYPE svg PUBLIC "-//W3C//DTD SVG 1.1//EN" "http://www.w3.org/Graphics/SVG/1.1/DTD/svg11.dtd"><svg t="1588299813451" class="icon" viewBox="0 0 1024 1024" version="1.1" xmlns="http://www.w3.org/2000/svg" p-id="14420" xmlns:xlink="http://www.w3.org/1999/xlink" width="200" height="200"><defs><style type="text/css"></style></defs><path d="M585.2 641.872c-8.256 7.648-20.048 20.72-35.04 38.992l-12.96 15.76-17.648-10.24c-84.352-49.008-152.384-121.216-190.832-204.928l-7.2-15.68 12.576-11.84c17.232-16.176 29.824-28.896 37.632-37.952a122.24 122.24 0 0 0 4.08-4.96 340.08 340.08 0 0 1-12.288-98.624 22.56 22.56 0 0 0-1.296-0.72 47.248 47.248 0 0 0-17.936-4.304l-99.424-3.472c-3.952-0.128-4.432 0.32-4.576 4.272-8.864 254 189.264 466.464 443.264 475.328 3.744 0.128 4.432-0.496 4.56-4.256l3.392-96.8c0.256-7.584 0.272-11.36-0.08-15.552-0.704-8.352-0.32-7.792-1.84-7.728-33.968 1.216-66.112-5.36-102.528-18.976a102.768 102.768 0 0 0-1.856 1.68z m-58.688-7.488c10.208-11.84 18.864-21.056 26.08-27.728 17.44-16.16 29.568-23.152 45.312-13.696 33.6 13.12 61.456 19.264 89.76 18.24 33.072-1.44 48.976 20.88 51.584 51.648 0.576 6.672 0.56 11.84 0.224 21.264l-3.376 96.8c-1.072 30.368-24.08 51.616-54.24 50.56-280.48-9.792-499.328-244.48-489.536-524.96 1.056-30.448 23.776-51.632 54.224-50.576l99.408 3.472c33.888 1.184 66.816 17.824 65.648 51.008a292.64 292.64 0 0 0 12.56 95.088c5.792 18.72-5.136 33.76-44.32 71.248 32.32 62.4 83.712 117.248 146.672 157.632z m18.16-312.24a190.08 190.08 0 0 1 107.36 53.952 190.08 190.08 0 0 1 54.672 112.672 10.576 10.576 0 0 1-10.4 11.808l-15.936 0.16a11.552 11.552 0 0 1-11.584-10.032 152.08 152.08 0 0 0-43.44-87.904 152.08 152.08 0 0 0-82.88-42.688 13.936 13.936 0 0 1-11.648-14.112l0.32-12.448a11.84 11.84 0 0 1 13.536-11.408z m2.704-114.08A304.16 304.16 0 0 1 732.144 296a304.16 304.16 0 0 1 88.688 193.312 9.344 9.344 0 0 1-9.216 10.032l-18.672 0.192a9.92 9.92 0 0 1-10-9.136 266.144 266.144 0 0 0-77.504-167.696 266.128 266.128 0 0 0-160.32-76.8 12.8 12.8 0 0 1-11.456-13.072l0.32-12.976a12.16 12.16 0 0 1 13.392-11.792z m-11.728 239.04c27.12 1.312 47.472 21.184 49.392 48.16 0.096 1.376-1.728 4.272-2.4 4.32-8.848 0.672-25.056 1.792-48.56 3.376h-0.112a4.4 4.4 0 0 1-4.688-4.816c1.664-23.808 2.784-40.224 3.392-49.248 0.032-0.496 2.048-1.84 2.976-1.792z" p-id="14421"></path></svg>