<?xml version="1.0" standalone="no"?><!DOCTYPE svg PUBLIC "-//W3C//DTD SVG 1.1//EN" "http://www.w3.org/Graphics/SVG/1.1/DTD/svg11.dtd"><svg t="1588299816469" class="icon" viewBox="0 0 1024 1024" version="1.1" xmlns="http://www.w3.org/2000/svg" p-id="14558" xmlns:xlink="http://www.w3.org/1999/xlink" width="200" height="200"><defs><style type="text/css"></style></defs><path d="M477.536 717.52a76.704 76.704 0 0 1 94.096-1.024c1.424 1.072 2.48 5.072 1.888 5.664-7.92 8.064-22.464 22.72-43.616 43.92l-0.096 0.096a6.56 6.56 0 0 1-9.184-0.096 18009.664 18009.664 0 0 0-44.24-44.512c-0.448-0.448 0.208-3.296 1.152-4.048z m-105.712-120.16a242.976 242.976 0 0 1 145.056-47.648c56.864 0 109.136 19.36 150.416 51.728a13.312 13.312 0 0 1 1.28 19.824l-14.176 14.352a14.752 14.752 0 0 1-19.44 1.376 194.352 194.352 0 0 0-118.08-39.648 194.416 194.416 0 0 0-114 36.624 16 16 0 0 1-20.976-1.856l-11.968-12.48a14.88 14.88 0 0 1 1.888-22.272z m-100.128-104.16a388.64 388.64 0 0 1 245.184-86.368c96.992 0 185.648 35.184 253.536 93.312a11.744 11.744 0 0 1 0.72 17.168l-16.608 16.816a12.672 12.672 0 0 1-17.216 0.784 340 340 0 0 0-220.432-80.464 340.064 340.064 0 0 0-213.44 74.704 16 16 0 0 1-21.584-1.408l-11.584-12.096a15.28 15.28 0 0 1 1.424-22.448z m-106.864-108.528C259.36 304.48 382.368 256 516.88 256c137.36 0 262.72 50.56 358 133.808a14.8 14.8 0 0 1 0.8 21.552l-12.112 12.272a16 16 0 0 1-21.92 0.8l-1.52-1.312c-86.4-74.4-199.488-119.488-323.248-119.488-121.792 0-233.248 43.648-319.104 115.952a15.12 15.12 0 0 1-20.656-1.104l-13.312-13.888a13.696 13.696 0 0 1 1.024-19.92z" p-id="14559"></path></svg>