<?xml version="1.0" standalone="no"?><!DOCTYPE svg PUBLIC "-//W3C//DTD SVG 1.1//EN" "http://www.w3.org/Graphics/SVG/1.1/DTD/svg11.dtd"><svg t="1588299740502" class="icon" viewBox="0 0 1024 1024" version="1.1" xmlns="http://www.w3.org/2000/svg" p-id="12626" xmlns:xlink="http://www.w3.org/1999/xlink" width="200" height="200"><defs><style type="text/css"></style></defs><path d="M396.528 524.384l46.48 1.472v62.4l120.16-114.592-120.16-114.592v52.8l-32.912 10.912c-87.84 29.072-143.936 75.728-169.696 143.072 41.664-29.264 94.032-43.44 156.128-41.472z m-49.52 47.984v2.528c-86.608 12.816-140.992 71.52-163.168 176.128-32.848-191.728 37.552-316.32 211.168-373.808v-60.352a29.92 29.92 0 0 1 50.56-21.648L617.6 459.2a19.952 19.952 0 0 1 0 28.88L445.584 652.112a29.92 29.92 0 0 1-50.576-21.648v-58.096a271.488 271.488 0 0 0-45.856 2.208l-2.144-2.208zM681.04 356.48a190.08 190.08 0 0 1 39.76 113.408 190.08 190.08 0 0 1-38.944 119.008 10.576 10.576 0 0 1-15.68 1.28l-11.584-10.96a11.552 11.552 0 0 1-1.36-15.264 152.08 152.08 0 0 0 29.808-93.408 152.08 152.08 0 0 0-29.952-88.288 13.936 13.936 0 0 1 1.408-18.24l8.88-8.736a11.84 11.84 0 0 1 17.664 1.2z m81.2-80.192a304.16 304.16 0 0 1 71.824 191.616 304.16 304.16 0 0 1-70.496 200.672 9.344 9.344 0 0 1-13.6 0.8l-13.568-12.832a9.92 9.92 0 0 1-0.848-13.52 266.144 266.144 0 0 0 60.752-174.464 266.128 266.128 0 0 0-61.984-166.624 12.8 12.8 0 0 1 0.848-17.344l9.248-9.12a12.16 12.16 0 0 1 17.824 0.816z" p-id="12627"></path></svg>