<?xml version="1.0" standalone="no"?><!DOCTYPE svg PUBLIC "-//W3C//DTD SVG 1.1//EN" "http://www.w3.org/Graphics/SVG/1.1/DTD/svg11.dtd"><svg t="1588299833181" class="icon" viewBox="0 0 1024 1024" version="1.1" xmlns="http://www.w3.org/2000/svg" p-id="15110" xmlns:xlink="http://www.w3.org/1999/xlink" width="200" height="200"><defs><style type="text/css"></style></defs><path d="M733.92 391.632l107.968-52.56a30.4 30.4 0 0 1 43.696 27.328v306a30.4 30.4 0 0 1-43.696 27.328L733.92 647.2v87.424a16 16 0 0 1-16 16H160a16 16 0 0 1-16-16V288a16 16 0 0 1 16-16h557.92a16 16 0 0 1 16 16v103.632zM192 702.608h493.92V320H192v382.608z m544-107.792l101.6 49.44V394.56L736 444v150.832z m-257.216-91.328l-91.936 91.936a16 16 0 0 1-22.624 0l-11.424-11.44a16 16 0 0 1 0-22.624l93.504-93.504h-30.496a16 16 0 0 1-11.312-4.688l-20-20a14.464 14.464 0 0 1 10.224-24.704h122.32c6.16 0 11.136 4.976 11.136 11.136v122.32a14.464 14.464 0 0 1-24.704 10.24l-20-20.016a16 16 0 0 1-4.688-11.312v-27.36z" p-id="15111"></path></svg>