<?xml version="1.0" standalone="no"?><!DOCTYPE svg PUBLIC "-//W3C//DTD SVG 1.1//EN" "http://www.w3.org/Graphics/SVG/1.1/DTD/svg11.dtd"><svg t="1588299719077" class="icon" viewBox="0 0 1024 1024" version="1.1" xmlns="http://www.w3.org/2000/svg" p-id="11936" xmlns:xlink="http://www.w3.org/1999/xlink" width="200" height="200"><defs><style type="text/css"></style></defs><path d="M384 520a104 104 0 1 0-208 0 104 104 0 0 0 208 0z m48 0a152 152 0 1 1-304 0 152 152 0 0 1 304 0z m432 0a104 104 0 1 0-208 0 104 104 0 0 0 208 0z m48 0a152 152 0 1 1-304 0 152 152 0 0 1 304 0z m-428.864-16h73.728c6.16 0 11.136 4.976 11.136 11.136v25.728a11.136 11.136 0 0 1-11.136 11.136h-73.728a11.136 11.136 0 0 1-11.136-11.136v-25.728c0-6.16 4.976-11.136 11.136-11.136z" p-id="11937"></path></svg>