<?xml version="1.0" standalone="no"?><!DOCTYPE svg PUBLIC "-//W3C//DTD SVG 1.1//EN" "http://www.w3.org/Graphics/SVG/1.1/DTD/svg11.dtd"><svg class="icon" width="200px" height="200.00px" viewBox="0 0 1024 1024" version="1.1" xmlns="http://www.w3.org/2000/svg"><path fill="#333333" d="M531.152 773.616a16 16 0 0 1 16 16V880a16 16 0 0 1-16 16h-22.304a16 16 0 0 1-16-16v-90.384a16 16 0 0 1 16-16h22.304z m200.352-66.016l57.92 57.92a16 16 0 0 1 0 22.624l-15.76 15.76a16 16 0 0 1-22.624 0l-57.92-57.92a16 16 0 0 1 0-22.624l15.76-15.76a16 16 0 0 1 22.624 0z m-394.688-1.408l15.76 15.776a16 16 0 0 1 0 22.624l-58.448 58.448a16 16 0 0 1-22.624 0l-15.776-15.776a16 16 0 0 1 0-22.624l58.448-58.448a16 16 0 0 1 22.64 0zM520 278.176c133.552 0 241.824 108.272 241.824 241.824 0 133.552-108.272 241.824-241.824 241.824-133.552 0-241.824-108.272-241.824-241.824 0-133.552 108.272-241.824 241.824-241.824z m0 54.304c-103.568 0-187.52 83.952-187.52 187.52 0 103.568 83.952 187.52 187.52 187.52 103.568 0 187.52-83.952 187.52-187.52 0-103.568-83.952-187.52-187.52-187.52z m-24.096 176.528c6.08 0 10.992 4.928 10.992 10.992l0.112 1.648a13.104 13.104 0 0 0 26.08-1.648l0.128-1.616a10.992 10.992 0 0 1 10.88-9.376h32.32c6.08 0 10.992 4.928 10.992 10.992l-0.08 3.36a67.408 67.408 0 0 1-134.72-3.36l0.112-1.616a10.992 10.992 0 0 1 10.88-9.376zM880 506.272a16 16 0 0 1 16 16v22.288a16 16 0 0 1-16 16h-91.376a16 16 0 0 1-16-16v-22.288a16 16 0 0 1 16-16H880z m-631.44 0a16 16 0 0 1 16 16v22.288a16 16 0 0 1-16 16H160a16 16 0 0 1-16-16v-22.288a16 16 0 0 1 16-16h88.56z m164.096-39.936a26.832 26.832 0 1 1 0 53.664 26.832 26.832 0 0 1 0-53.664z m214.688 0a26.832 26.832 0 1 1 0 53.664 26.832 26.832 0 0 1 0-53.664zM787.472 255.52l15.776 15.776a16 16 0 0 1 0 22.624l-59.68 59.68a16 16 0 0 1-22.624 0l-15.776-15.776a16 16 0 0 1 0-22.624l59.68-59.68a16 16 0 0 1 22.624 0z m-512.32 0l57.92 57.92a16 16 0 0 1 0 22.64l-15.76 15.76a16 16 0 0 1-22.64 0l-57.92-57.92a16 16 0 0 1 0-22.624l15.776-15.776a16 16 0 0 1 22.624 0z m256-111.52a16 16 0 0 1 16 16v85.2a16 16 0 0 1-16 16h-22.304a16 16 0 0 1-16-16V160a16 16 0 0 1 16-16h22.304z" /></svg>