<?xml version="1.0" standalone="no"?><!DOCTYPE svg PUBLIC "-//W3C//DTD SVG 1.1//EN" "http://www.w3.org/Graphics/SVG/1.1/DTD/svg11.dtd"><svg class="icon" width="200px" height="200.00px" viewBox="0 0 1024 1024" version="1.1" xmlns="http://www.w3.org/2000/svg"><path fill="#333333" d="M667.2 483.136c9.2-21.76 40.048-21.76 49.264 0l145.392 343.68A26.752 26.752 0 0 1 837.216 864H546.448a26.752 26.752 0 0 1-24.64-37.168z m-173.632-16.32a26.752 26.752 0 0 1 24.64 37.168L372.8 847.68c-9.2 21.776-40.048 21.776-49.264 0L178.144 504a26.752 26.752 0 0 1 24.64-37.168h290.784z m198.256 95.392l-105.024 248.288h210.048L691.84 562.208zM453.184 520.32H243.136l105.024 248.288 105.024-248.288zM348.176 176a119.28 119.28 0 0 1 119.264 119.28A119.28 119.28 0 1 1 348.176 176z m343.648 0a119.28 119.28 0 0 1 119.28 119.28A119.28 119.28 0 1 1 691.824 176z m-343.648 53.504a65.776 65.776 0 1 0 0 131.552 65.776 65.776 0 0 0 0-131.552z m343.648 0a65.776 65.776 0 1 0 0 131.552 65.776 65.776 0 0 0 0-131.552z" /></svg>