<?xml version="1.0" standalone="no"?><!DOCTYPE svg PUBLIC "-//W3C//DTD SVG 1.1//EN" "http://www.w3.org/Graphics/SVG/1.1/DTD/svg11.dtd"><svg class="icon" width="200px" height="200.00px" viewBox="0 0 1024 1024" version="1.1" xmlns="http://www.w3.org/2000/svg"><path fill="#333333" d="M680 728a16 16 0 0 1 16 16v16a16 16 0 0 1-16 16h-320a16 16 0 0 1-16-16v-16a16 16 0 0 1 16-16h320zM832 240a16 16 0 0 1 16 16v400a16 16 0 0 1-16 16H208a16 16 0 0 1-16-16V256a16 16 0 0 1 16-16h624z m-32 48H240v336h560V288z m-333.824 72.96a16 16 0 0 1 7.76 2.016l140.064 77.568a16 16 0 0 1 0 28l-140.064 77.568a16 16 0 0 1-23.76-13.984V376.96a16 16 0 0 1 16-16z m32 70.32v46.544l42.032-23.28-42.032-23.264z" /></svg>