<?xml version="1.0" standalone="no"?><!DOCTYPE svg PUBLIC "-//W3C//DTD SVG 1.1//EN" "http://www.w3.org/Graphics/SVG/1.1/DTD/svg11.dtd"><svg t="1588299823851" class="icon" viewBox="0 0 1024 1024" version="1.1" xmlns="http://www.w3.org/2000/svg" p-id="14834" xmlns:xlink="http://www.w3.org/1999/xlink" width="200" height="200"><defs><style type="text/css"></style></defs><path d="M631.888 517.664l77.072 77.056a11.008 11.008 0 0 1 0 15.568l-18.368 18.384a11.008 11.008 0 0 1-15.568 0l-77.072-77.072-77.072 77.072a11.008 11.008 0 0 1-15.568 0l-18.368-18.384a11.008 11.008 0 0 1 0-15.568l77.072-77.056-77.072-77.072a11.008 11.008 0 0 1 0-15.568l18.368-18.368a11.008 11.008 0 0 1 15.568 0l77.072 77.056 77.072-77.056a11.008 11.008 0 0 1 15.568 0l18.368 18.368a11.008 11.008 0 0 1 0 15.568l-77.072 77.072z m-398.656-5.28L402.192 720h409.2V304H402.24L233.232 512.384zM387.008 256h456.384a16 16 0 0 1 16 16v480a16 16 0 0 1-16 16H386.992a16 16 0 0 1-12.416-5.904L179.584 522.528a16 16 0 0 1 0-20.176L374.56 261.92a16 16 0 0 1 12.432-5.92z" p-id="14835"></path></svg>