<?xml version="1.0" standalone="no"?><!DOCTYPE svg PUBLIC "-//W3C//DTD SVG 1.1//EN" "http://www.w3.org/Graphics/SVG/1.1/DTD/svg11.dtd"><svg t="1588299950202" class="icon" viewBox="0 0 1024 1024" version="1.1" xmlns="http://www.w3.org/2000/svg" p-id="18560" xmlns:xlink="http://www.w3.org/1999/xlink" width="200" height="200"><defs><style type="text/css"></style></defs><path d="M706.08 724.528a40.688 40.688 0 1 1 0-81.392 40.688 40.688 0 0 1 0 81.392z m0-48a7.312 7.312 0 1 0 0 14.608 7.312 7.312 0 0 0 0-14.608z m-203.152 69.84c-120.48-7.2-215.968-107.2-215.968-229.504 0-126.976 102.928-229.92 229.92-229.92 120.192 0 218.848 92.256 229.04 209.824 0.576 6.624 2.176 20.096-15.6 20.096h-15.776c-16.592 0-16.048-11.76-16.592-17.52-8.816-92.24-86.528-164.384-181.088-164.384-100.464 0-181.92 81.44-181.92 181.92 0 95.2 73.184 173.344 166.352 181.248 5.136 0.432 15.568 0.432 15.568 15.04v16.88c0 14.992-9.328 16.592-13.92 16.32z m203.152 141.504c-32.256 0-129.728-143.728-129.728-202.944 0-72.208 58.032-130.848 129.728-130.848 71.712 0 129.76 58.64 129.76 130.848 0 59.216-97.504 202.944-129.76 202.944z m-1.92-59.2l1.92 2.24a553.6 553.6 0 0 0 36.288-47.872c27.872-41.056 45.456-78.304 45.456-98.112 0-45.808-36.64-82.848-81.744-82.848-45.088 0-81.728 37.04-81.728 82.848 0 19.808 17.584 57.056 45.44 98.128a553.6 553.6 0 0 0 34.368 45.616zM492.864 160a16 16 0 0 1 16-16h16a16 16 0 0 1 16 16v68.16a16 16 0 0 1-16 16h-16a16 16 0 0 1-16-16V160zM160 540.864a16 16 0 0 1-16-16v-16a16 16 0 0 1 16-16h68.16a16 16 0 0 1 16 16v16a16 16 0 0 1-16 16H160z m634.432 0a16 16 0 0 1-16-16v-16a16 16 0 0 1 16-16h68.176a16 16 0 0 1 16 16v16a16 16 0 0 1-16 16h-68.16zM247.616 276a16 16 0 0 1 0-22.624l11.312-11.312a16 16 0 0 1 22.64 0l48.208 48.192a16 16 0 0 1 0 22.64l-11.328 11.312a16 16 0 0 1-22.624 0l-48.208-48.208z m504.56-33.936a16 16 0 0 1 22.624 0l11.312 11.312a16 16 0 0 1 0 22.624l-48.208 48.208a16 16 0 0 1-22.624 0l-11.312-11.312a16 16 0 0 1 0-22.64l48.208-48.192zM295.824 698.4a16 16 0 0 1 22.624 0l11.328 11.312a16 16 0 0 1 0 22.64l-48.208 48.192a16 16 0 0 1-22.64 0l-11.312-11.312a16 16 0 0 1 0-22.624l48.208-48.208z m197.04 96.032a16 16 0 0 1 16-16h16a16 16 0 0 1 16 16v68.176a16 16 0 0 1-16 16h-16a16 16 0 0 1-16-16v-68.16z" p-id="18561"></path></svg>