<?xml version="1.0" standalone="no"?><!DOCTYPE svg PUBLIC "-//W3C//DTD SVG 1.1//EN" "http://www.w3.org/Graphics/SVG/1.1/DTD/svg11.dtd"><svg t="1588299504667" class="icon" viewBox="0 0 1024 1024" version="1.1" xmlns="http://www.w3.org/2000/svg" p-id="8072" xmlns:xlink="http://www.w3.org/1999/xlink" width="200" height="200"><defs><style type="text/css"></style></defs><path d="M754.784 224H272v550.112l221.296-106.192a53.568 53.568 0 0 1 46.768 0.192l214.72 105.28V224z m-519.648-48h556.512c6.144 0 11.136 4.976 11.136 11.136v645.392a11.136 11.136 0 0 1-16.032 10l-267.84-131.312a5.568 5.568 0 0 0-4.848-0.016L239.952 842.72a11.136 11.136 0 0 1-15.952-10.032V187.136c0-6.16 4.976-11.136 11.136-11.136z m268.352 349.152a26.368 26.368 0 0 1 30.944 0l33.408 24.224-12.704-39.264c-3.52-10.848 0.352-22.72 9.568-29.44l33.36-24.288-41.28-0.048c-11.392 0-21.488-7.36-25.024-18.192l-12.8-39.232-12.8 39.232a26.368 26.368 0 0 1-25.04 18.192l-41.28 0.048 33.376 24.288c9.216 6.72 13.072 18.592 9.568 29.44l-12.72 39.264 33.424-24.224z m-46.832 85.328a26.368 26.368 0 0 1-40.56-29.472l23.696-73.2-62.192-45.28a26.368 26.368 0 0 1 15.488-47.68l76.96-0.096 23.84-73.152a26.368 26.368 0 0 1 50.128 0l23.856 73.152 76.96 0.08a26.368 26.368 0 0 1 15.488 47.68l-62.208 45.28 23.696 73.216a26.368 26.368 0 0 1-40.56 29.472l-62.288-45.168-62.304 45.168z m24.416-195.744h-11.04l-3.424 10.512a15.232 15.232 0 0 1 14.464-10.512z" p-id="8073"></path></svg>