<?xml version="1.0" standalone="no"?><!DOCTYPE svg PUBLIC "-//W3C//DTD SVG 1.1//EN" "http://www.w3.org/Graphics/SVG/1.1/DTD/svg11.dtd"><svg t="1588299408812" class="icon" viewBox="0 0 1024 1024" version="1.1" xmlns="http://www.w3.org/2000/svg" p-id="5726" xmlns:xlink="http://www.w3.org/1999/xlink" width="200" height="200"><defs><style type="text/css"></style></defs><path d="M358.192 356.368H816a16 16 0 0 1 16 16v416a16 16 0 0 1-16 16H208a16 16 0 0 1-16-16v-416a16 16 0 0 1 9.856-14.784 15.984 15.984 0 0 1 4.56-2.336l401.808-130.464a16 16 0 0 1 20.384 11.072l4.144 15.424a16 16 0 0 1-10.512 19.36l-264.048 85.728z m-118.192 48v352h544v-352H240z m128 48h112a16 16 0 0 1 16 16v16a16 16 0 0 1-16 16h-112a16 16 0 0 1-16-16v-16a16 16 0 0 1 16-16z m-64 96h240a16 16 0 0 1 16 16v16a16 16 0 0 1-16 16H304a16 16 0 0 1-16-16v-16a16 16 0 0 1 16-16z m64 96h112a16 16 0 0 1 16 16v16a16 16 0 0 1-16 16h-112a16 16 0 0 1-16-16v-16a16 16 0 0 1 16-16z m336-208h32a16 16 0 0 1 16 16v32a16 16 0 0 1-16 16h-32a16 16 0 0 1-16-16v-32a16 16 0 0 1 16-16z" p-id="5727"></path></svg>