<?xml version="1.0" standalone="no"?><!DOCTYPE svg PUBLIC "-//W3C//DTD SVG 1.1//EN" "http://www.w3.org/Graphics/SVG/1.1/DTD/svg11.dtd"><svg t="1588299437280" class="icon" viewBox="0 0 1024 1024" version="1.1" xmlns="http://www.w3.org/2000/svg" p-id="6554" xmlns:xlink="http://www.w3.org/1999/xlink" width="200" height="200"><defs><style type="text/css"></style></defs><path d="M192.48 280.848a21.568 21.568 0 0 1 17.248-16.704c34.72-6.368 104.512-25.808 137.584-39.84a755.84 755.84 0 0 0 100.224-51.312c17.664-10.8 22.032-12.944 32.448-12.992 10.56-0.048 15.2 2.208 32.832 13.008a767.136 767.136 0 0 0 99.872 51.28c33.088 14.064 67.744 23.936 102.464 30.288 7.28 1.328 10.368 1.92 13.824 2.656 38.992 8.352 39.024 8.368 39.024 62.944V448a16 16 0 0 1-16 16h-10.08a16 16 0 0 1-16-16v-127.952c0-26.56 3.072-20.096-5.808-22-2.88-0.624-5.76-1.168-12.592-2.4-37.616-6.88-75.248-17.6-111.392-32.96a809.12 809.12 0 0 1-105.392-54.144 171.52 171.52 0 0 0-10.576-6.208c-1.92 0.96-4.352 2.4-10.56 6.208a797.6 797.6 0 0 1-105.776 54.16c-31.296 13.28-90.128 30.304-129.76 39.072v247.68c1.072 51.424 48.432 115.376 126.992 182.144a1051.52 1051.52 0 0 0 89.28 67.6c10.72 7.28 20.688 13.76 29.408 19.264l0.32 0.192 0.4-0.24c8.8-5.472 18.864-11.952 29.664-19.2a15.152 15.152 0 0 1 19.36 2.048l12.032 12.48a10.432 10.432 0 0 1-1.632 15.872C510.336 849.76 486.192 864 480 864c-11.984 0-90.976-53.664-146.304-100.688C246.56 689.28 193.392 617.472 192 549.888V285.04c0-1.52 0.16-2.912 0.48-4.192zM656 735.36c-48.368 0-87.6-39.088-87.6-87.344 0-48.256 39.232-87.344 87.6-87.344 48.368 0 87.6 39.088 87.6 87.344 0 48.256-39.232 87.344-87.6 87.344z m0-43.2a44.272 44.272 0 0 0 44.4-44.144A44.272 44.272 0 0 0 656 603.856a44.272 44.272 0 0 0-44.4 44.144A44.272 44.272 0 0 0 656 692.144zM648.4 480h15.2a14.4 14.4 0 0 1 14.4 14.4v29.632a14.4 14.4 0 0 1-14.4 14.4h-15.2a14.4 14.4 0 0 1-14.4-14.4V494.4a14.4 14.4 0 0 1 14.4-14.4z m121.472 43.84l10.72 10.656a14.4 14.4 0 0 1 0 20.4l-21.088 21.008a14.4 14.4 0 0 1-20.32 0l-10.72-10.672a14.4 14.4 0 0 1 0-20.4l21.088-20.992a14.4 14.4 0 0 1 20.32 0z m54.8 116.64v15.04a14.4 14.4 0 0 1-14.4 14.4h-29.872a14.4 14.4 0 0 1-14.4-14.4v-15.04a14.4 14.4 0 0 1 14.4-14.4h29.872a14.4 14.4 0 0 1 14.4 14.4z m-44.096 121.024l-10.72 10.656a14.4 14.4 0 0 1-20.32 0l-21.072-20.992a14.4 14.4 0 0 1 0-20.4l10.72-10.672a14.4 14.4 0 0 1 20.32 0l21.072 21.008a14.4 14.4 0 0 1 0 20.4zM663.6 816h-15.2a14.4 14.4 0 0 1-14.4-14.4v-29.632a14.4 14.4 0 0 1 14.4-14.4h15.2a14.4 14.4 0 0 1 14.4 14.4V801.6a14.4 14.4 0 0 1-14.4 14.4z m-121.472-43.84l-10.72-10.656a14.4 14.4 0 0 1 0-20.4l21.088-21.008a14.4 14.4 0 0 1 20.32 0l10.72 10.672a14.4 14.4 0 0 1 0 20.4l-21.088 20.992a14.4 14.4 0 0 1-20.32 0z m-54.8-116.64v-15.04a14.4 14.4 0 0 1 14.4-14.4h29.872a14.4 14.4 0 0 1 14.4 14.4v15.04a14.4 14.4 0 0 1-14.4 14.4h-29.872a14.4 14.4 0 0 1-14.4-14.4z m44.096-121.024l10.72-10.656a14.4 14.4 0 0 1 20.32 0l21.072 20.992a14.4 14.4 0 0 1 0 20.4l-10.72 10.672a14.4 14.4 0 0 1-20.32 0l-21.072-21.008a14.4 14.4 0 0 1 0-20.4z" p-id="6555"></path></svg>