<?xml version="1.0" standalone="no"?><!DOCTYPE svg PUBLIC "-//W3C//DTD SVG 1.1//EN" "http://www.w3.org/Graphics/SVG/1.1/DTD/svg11.dtd"><svg t="1588299819862" class="icon" viewBox="0 0 1024 1024" version="1.1" xmlns="http://www.w3.org/2000/svg" p-id="14696" xmlns:xlink="http://www.w3.org/1999/xlink" width="200" height="200"><defs><style type="text/css"></style></defs><path d="M617.2 615.712c-8.256 7.632-20.048 20.704-35.04 38.976l-12.96 15.776-17.648-10.256C467.2 611.2 399.168 538.992 360.72 455.296l-7.2-15.696 12.576-11.824c17.232-16.192 29.824-28.912 37.632-37.952a122.24 122.24 0 0 0 4.08-4.976 340.08 340.08 0 0 1-12.288-98.624 22.56 22.56 0 0 0-1.296-0.72 47.248 47.248 0 0 0-17.936-4.304l-99.424-3.472c-3.952-0.128-4.432 0.32-4.576 4.272C263.424 536 461.552 748.48 715.552 757.344c3.744 0.128 4.432-0.512 4.56-4.272l3.392-96.8c0.256-7.584 0.272-11.36-0.08-15.552-0.704-8.352-0.32-7.792-1.84-7.712-33.968 1.2-66.112-5.376-102.528-18.992a102.768 102.768 0 0 0-1.856 1.696z m-58.688-7.488c10.208-11.84 18.864-21.072 26.08-27.744 17.44-16.16 29.568-23.136 45.312-13.696 33.6 13.12 61.456 19.264 89.76 18.24 33.072-1.44 48.976 20.88 51.584 51.648 0.576 6.672 0.56 11.84 0.224 21.28l-3.376 96.8c-1.072 30.352-24.08 51.616-54.24 50.56-280.48-9.792-499.328-244.48-489.536-524.992 1.056-30.432 23.776-51.616 54.224-50.56l99.408 3.472c33.888 1.184 66.816 17.824 65.648 51.008a292.64 292.64 0 0 0 12.56 95.088c5.792 18.72-5.136 33.76-44.32 71.248 32.32 62.4 83.712 117.264 146.672 157.648z m186.992-299.2l-91.936 91.936a16 16 0 0 1-22.624 0l-11.424-11.44a16 16 0 0 1 0-22.624l93.504-93.504h-14.496a16 16 0 0 1-11.312-4.688l-20-20A14.464 14.464 0 0 1 677.44 224h106.32c6.144 0 11.136 4.976 11.136 11.136v106.32a14.464 14.464 0 0 1-24.704 10.24l-20-20.016a16 16 0 0 1-4.688-11.312v-11.36z" p-id="14697"></path></svg>