<?xml version="1.0" standalone="no"?><!DOCTYPE svg PUBLIC "-//W3C//DTD SVG 1.1//EN" "http://www.w3.org/Graphics/SVG/1.1/DTD/svg11.dtd"><svg t="1588300010214" class="icon" viewBox="0 0 1024 1024" version="1.1" xmlns="http://www.w3.org/2000/svg" p-id="20354" xmlns:xlink="http://www.w3.org/1999/xlink" width="200" height="200"><defs><style type="text/css"></style></defs><path d="M771.984 663.632c-37.504 110.448-142.08 189.92-265.2 189.92-123.04 0-227.52-79.344-265.12-189.648a90.784 90.784 0 0 1 0-180.672c35.12-103.072 128.64-179.104 241.12-188.64v-25.056a57.408 57.408 0 1 1 48 0v25.04c112.64 9.568 206.24 85.792 241.248 189.072a90.8 90.8 0 0 1-0.048 180z m12.64-55.008a42.736 42.736 0 0 0 18.128-34.992 42.72 42.72 0 0 0-18.128-34.976 282.768 282.768 0 0 1 0 69.968z m-555.424 1.888a282.624 282.624 0 0 1 0-73.904A42.736 42.736 0 0 0 208 573.568c0 15.76 8.512 29.52 21.2 36.96z m70.208 67.184c38.16 75.84 116.688 127.872 207.36 127.872 128.144 0 232-103.872 232-232s-103.856-232-232-232c-120.288 0-219.2 91.552-230.832 208.784 36.736 99.52 106.624 150.24 213.536 154.72 5.168 0.208 15.76 1.2 15.76 16v16.8c0 15.248-10.208 15.424-15.2 15.248-79.248-2.848-143.104-28.192-190.624-75.424zM388.16 506.08a16 16 0 0 1 16-16h16a16 16 0 0 1 16 16v45.92a16 16 0 0 1-16 16h-16a16 16 0 0 1-16-16v-45.92z m189.216-2.768a16 16 0 0 1 16-16h16a16 16 0 0 1 16 16v45.92a16 16 0 0 1-16 16h-16a16 16 0 0 1-16-16v-45.92z m-61.216-285.92a9.392 9.392 0 1 0-18.768 0 9.392 9.392 0 0 0 18.768 0z" p-id="20355"></path></svg>