<?xml version="1.0" standalone="no"?><!DOCTYPE svg PUBLIC "-//W3C//DTD SVG 1.1//EN" "http://www.w3.org/Graphics/SVG/1.1/DTD/svg11.dtd"><svg t="1588299918252" class="icon" viewBox="0 0 1024 1024" version="1.1" xmlns="http://www.w3.org/2000/svg" p-id="17870" xmlns:xlink="http://www.w3.org/1999/xlink" width="200" height="200"><defs><style type="text/css"></style></defs><path d="M509.92 843.84C325.504 843.84 176 694.32 176 509.92 176 325.504 325.504 176 509.92 176c184.416 0 333.92 149.504 333.92 333.92 0 184.416-149.504 333.92-333.92 333.92z m5.552-367.872l-74.032-74.032a16 16 0 0 0-22.624 0l-11.312 11.312a16 16 0 0 0 0 22.64l74.032 74.032-74.032 74.032a16 16 0 0 0 0 22.624l11.312 11.312a16 16 0 0 0 22.624 0l74.032-74.032 74.032 74.032a16 16 0 0 0 22.64 0l11.312-11.312a16 16 0 0 0 0-22.624l-74.032-74.032 74.032-74.032a16 16 0 0 0 0-22.64l-11.312-11.312a16 16 0 0 0-22.64 0l-74.032 74.032z" p-id="17871"></path></svg>