<?xml version="1.0" standalone="no"?><!DOCTYPE svg PUBLIC "-//W3C//DTD SVG 1.1//EN" "http://www.w3.org/Graphics/SVG/1.1/DTD/svg11.dtd"><svg t="1588299932004" class="icon" viewBox="0 0 1024 1024" version="1.1" xmlns="http://www.w3.org/2000/svg" p-id="18146" xmlns:xlink="http://www.w3.org/1999/xlink" width="200" height="200"><defs><style type="text/css"></style></defs><path d="M501.84 393.44h16a16 16 0 0 1 16 16v151.584a16 16 0 0 1-6.768 13.072l-84.928 59.952a16 16 0 0 1-22.304-3.84l-9.216-13.072a16 16 0 0 1 3.84-22.304l71.376-50.4V409.44a16 16 0 0 1 16-16z m3.552 458.96C332.304 852.4 192 712.08 192 539.008s140.32-313.392 313.392-313.392c173.088 0 313.392 140.32 313.392 313.392 0 173.088-140.32 313.392-313.392 313.392z m0-48c146.56 0 265.392-118.816 265.392-265.392 0-146.56-118.816-265.392-265.392-265.392-146.56 0-265.392 118.832-265.392 265.392 0 146.576 118.816 265.392 265.392 265.392z m-100.288-617.6l4.752 17.36c4.224 13.632-4.48 17.712-8.784 19.088a333.824 333.824 0 0 0-156.72 106.448c-4.032 4.912-11.408 13.952-26.24 4.528l-11.952-8.688c-11.472-9.088-5.648-17.904-2.176-22.24a381.792 381.792 0 0 1 183.44-126.08c4.608-1.456 13.968-3.344 17.68 9.568z m396.768 137.376l-13.184 9.696c-13.04 8.912-19.84 0.48-23.424-3.904a333.84 333.84 0 0 0-155.12-106.032c-5.44-1.76-15.936-5.376-11.664-23.04l3.728-13.856c5.104-14.64 15.328-11.136 21.008-9.328a381.808 381.808 0 0 1 180.608 123.6c3.616 4.48 11.136 14.288-1.952 22.864z" p-id="18147"></path></svg>