<?xml version="1.0" standalone="no"?><!DOCTYPE svg PUBLIC "-//W3C//DTD SVG 1.1//EN" "http://www.w3.org/Graphics/SVG/1.1/DTD/svg11.dtd"><svg class="icon" width="200px" height="200.00px" viewBox="0 0 1024 1024" version="1.1" xmlns="http://www.w3.org/2000/svg"><path fill="#333333" d="M745.536 432.032c35.2 0 63.76 28.32 63.76 63.248a63.008 63.008 0 0 1-26.512 51.36l-0.016 54.528 53.808-19.568a16 16 0 0 1 19.76 7.84l0.752 1.728 5.44 14.976a16 16 0 0 1-9.552 20.496l-70.208 25.552v83.28c0 60.88-48.736 110.464-109.632 112.48l-3.824 0.048H370.688c-62.656 0-113.456-50.384-113.456-112.528l-0.016-83.28-70.192-25.552a16 16 0 0 1-9.552-20.496l5.44-14.976a16 16 0 0 1 20.512-9.568l53.792 19.568v-54.544a63.04 63.04 0 0 1-26.432-48.176l-0.08-3.168c0-34.928 28.544-63.248 63.76-63.248z m-10.72 126.496H305.152l0.016 176.96c0 33.696 25.888 61.408 59.024 64.64l3.232 0.24 3.264 0.08h298.624c36.192 0 65.52-29.088 65.52-64.96l-0.016-176.96z m10.72-78.944H294.464c-8.736 0-15.84 7.04-15.84 15.696 0 8.672 7.104 15.712 15.84 15.712h451.072c8.736 0 15.84-7.04 15.84-15.712a15.76 15.76 0 0 0-15.84-15.696z m-99.52-284.864l0.112 0.08 12.288 9.76a16 16 0 0 1 2.672 22.368l-4.928 6.336c-4.912 6.288-6.144 9.168-6.144 15.824 0 6.512 0.928 9.056 6.208 15.888l1.712 2.192c12.944 16.256 18.4 27.68 18.4 48.08 0 19.04-4.752 30.24-15.904 44.88l-9.28 11.904a16 16 0 0 1-22.528 2.736l-12.32-9.728a16 16 0 0 1-2.72-22.384l7.264-9.328c6.8-8.544 7.936-10.928 7.936-18.08 0-5.872-0.768-8.528-4.768-13.968l-3.168-4.128c-12.944-16.256-18.4-27.68-18.4-48.064 0-17.408 4.592-29.472 13.92-42.256l2.416-3.216 4.8-6.128a16 16 0 0 1 22.448-2.768z m-212.256 0l0.096 0.08 12.304 9.76a16 16 0 0 1 2.672 22.368l-4.944 6.336c-4.912 6.288-6.144 9.168-6.144 15.824 0 5.856 0.752 8.512 4.752 13.968l3.184 4.112c12.928 16.256 18.384 27.68 18.384 48.08 0 19.04-4.752 30.24-15.904 44.88l-4.496 5.744-4.768 6.128a16 16 0 0 1-22.56 2.752l-12.304-9.712a16 16 0 0 1-2.72-22.384l7.264-9.328c6.8-8.544 7.936-10.928 7.936-18.08 0-6.528-0.928-9.072-6.208-15.904l-1.728-2.192c-12.928-16.256-18.384-27.68-18.384-48.064 0-17.408 4.592-29.472 13.92-42.256l2.4-3.216 4.8-6.128a16 16 0 0 1 22.448-2.768z m106.128 0l0.112 0.08 12.288 9.76a16 16 0 0 1 2.672 22.368l-4.944 6.336c-4.912 6.288-6.144 9.168-6.144 15.824 0 5.856 0.768 8.512 4.752 13.968l3.184 4.112c12.928 16.256 18.384 27.68 18.384 48.08 0 19.04-4.752 30.24-15.904 44.88l-4.496 5.744-4.768 6.128a16 16 0 0 1-22.544 2.752l-12.32-9.712a16 16 0 0 1-2.72-22.384l7.28-9.328c6.8-8.544 7.92-10.928 7.92-18.08 0-6.528-0.928-9.072-6.208-15.904l-1.712-2.192c-12.944-16.256-18.4-27.68-18.4-48.064 0-17.408 4.592-29.472 13.92-42.256l2.416-3.216 4.784-6.128a16 16 0 0 1 22.448-2.768z" /></svg>