<?xml version="1.0" standalone="no"?><!DOCTYPE svg PUBLIC "-//W3C//DTD SVG 1.1//EN" "http://www.w3.org/Graphics/SVG/1.1/DTD/svg11.dtd"><svg class="icon" width="200px" height="200.00px" viewBox="0 0 1024 1024" version="1.1" xmlns="http://www.w3.org/2000/svg"><path fill="#333333" d="M672 816a16 16 0 0 1 16 16v16a16 16 0 0 1-16 16H352a16 16 0 0 1-16-16v-16a16 16 0 0 1 16-16h320z m52.864-656c6.16 0 11.136 4.976 11.136 11.136v585.728a11.136 11.136 0 0 1-11.136 11.136H299.136a11.136 11.136 0 0 1-11.136-11.136V171.136c0-6.16 4.976-11.136 11.136-11.136h425.728z m-265.44 192c-15.136 0-27.424 12.56-27.424 28.064v167.872c0 5.072 1.344 10.048 3.888 14.4a27.088 27.088 0 0 0 37.632 9.68l137.12-83.936a28.432 28.432 0 0 0 0-48.16l-137.12-83.936a26.976 26.976 0 0 0-14.08-3.984z" /></svg>