<?xml version="1.0" standalone="no"?><!DOCTYPE svg PUBLIC "-//W3C//DTD SVG 1.1//EN" "http://www.w3.org/Graphics/SVG/1.1/DTD/svg11.dtd"><svg class="icon" width="200px" height="196.92px" viewBox="0 0 1040 1024" version="1.1" xmlns="http://www.w3.org/2000/svg"><path fill="#333333" d="M688 816a16 16 0 0 1 16 16v16a16 16 0 0 1-16 16H368a16 16 0 0 1-16-16v-16a16 16 0 0 1 16-16h320z m52.864-656c6.16 0 11.136 4.976 11.136 11.136v585.728a11.136 11.136 0 0 1-11.136 11.136H315.136a11.136 11.136 0 0 1-11.136-11.136V171.136c0-6.16 4.976-11.136 11.136-11.136h425.728zM704 208H352v512h352V208z m-243.968 132.32a32 32 0 0 1 16.432 4.544l159.936 95.696a32 32 0 0 1 0 54.928l-159.936 95.696a32 32 0 0 1-48.432-27.456V372.32a32 32 0 0 1 32-32z m16 60.192v134.992l112.784-67.488-112.8-67.504z" /></svg>