<?xml version="1.0" standalone="no"?><!DOCTYPE svg PUBLIC "-//W3C//DTD SVG 1.1//EN" "http://www.w3.org/Graphics/SVG/1.1/DTD/svg11.dtd"><svg class="icon" width="200px" height="200.00px" viewBox="0 0 1024 1024" version="1.1" xmlns="http://www.w3.org/2000/svg"><path fill="#333333" d="M672 816a16 16 0 0 1 16 16v16a16 16 0 0 1-16 16H352a16 16 0 0 1-16-16v-16a16 16 0 0 1 16-16h320z m52.864-656c6.16 0 11.136 4.976 11.136 11.136v585.728a11.136 11.136 0 0 1-11.136 11.136H299.136a11.136 11.136 0 0 1-11.136-11.136V171.136c0-6.16 4.976-11.136 11.136-11.136h425.728zM592 384h-16l-1.872 0.112A16 16 0 0 0 560 400v160l0.112 1.872A16 16 0 0 0 576 576h16l1.872-0.112A16 16 0 0 0 608 560V400l-0.112-1.872A16 16 0 0 0 592 384z m-144 0h-16l-1.872 0.112A16 16 0 0 0 416 400v160l0.112 1.872A16 16 0 0 0 432 576h16l1.872-0.112A16 16 0 0 0 464 560V400l-0.112-1.872A16 16 0 0 0 448 384z" /></svg>