<?xml version="1.0" standalone="no"?><!DOCTYPE svg PUBLIC "-//W3C//DTD SVG 1.1//EN" "http://www.w3.org/Graphics/SVG/1.1/DTD/svg11.dtd"><svg t="1588299417271" class="icon" viewBox="0 0 1024 1024" version="1.1" xmlns="http://www.w3.org/2000/svg" p-id="6002" xmlns:xlink="http://www.w3.org/1999/xlink" width="200" height="200"><defs><style type="text/css"></style></defs><path d="M256 500.416C256 648.32 374.32 768 520 768c141.808 0 257.696-113.408 263.744-255.872a258.72 258.72 0 0 1-132.368 36.288c-144.544 0-261.488-118.288-261.488-263.936 0-5.792 0.192-11.552 0.56-17.296C308.672 313.888 256 402.192 256 500.416z m186.56-261.104a219.2 219.2 0 0 0-4.672 45.168c0 119.264 95.584 215.936 213.488 215.936 51.312 0 98.4-18.32 135.2-48.832 12.688-10.512 41.024-6.48 42.912 8.64 1.664 13.152 2.512 26.56 2.512 40.192C832 674.704 692.32 816 520 816S208 674.72 208 500.416c0-130.464 78.272-242.448 189.904-290.512 19.408-8.352 48.24 12.432 44.672 29.408z" p-id="6003"></path></svg>