<?xml version="1.0" standalone="no"?><!DOCTYPE svg PUBLIC "-//W3C//DTD SVG 1.1//EN" "http://www.w3.org/Graphics/SVG/1.1/DTD/svg11.dtd"><svg t="1588299957925" class="icon" viewBox="0 0 1024 1024" version="1.1" xmlns="http://www.w3.org/2000/svg" p-id="18836" xmlns:xlink="http://www.w3.org/1999/xlink" width="200" height="200"><defs><style type="text/css"></style></defs><path d="M653.568 590.768l119.488 119.488a87.312 87.312 0 0 0-119.488-119.488z m84.768 152.64l-117.92-117.92a87.312 87.312 0 0 0 117.92 117.92zM244.592 464l38.528-165.712a16 16 0 0 1 15.584-12.368h274.944a16 16 0 0 1 15.584 12.368L627.76 464h23.712a16 16 0 0 1 16 16v16a16 16 0 0 1-16 16H224v141.216h293.92a16 16 0 0 1 16 16v16a16 16 0 0 1-16 16H298.784v49.04a16 16 0 0 1-16 16h-16a16 16 0 0 1-16-16v-49.04H192a16 16 0 0 1-16-16V480a16 16 0 0 1 16-16h52.592z m49.28 0h284.608l-30.24-130.08H324.096L293.872 464z m403.872 337.392a135.312 135.312 0 1 1 0-270.608 135.312 135.312 0 0 1 0 270.608zM508.528 240v-16a16 16 0 0 1 16-16h121.456a16 16 0 0 1 15.584 12.384l38.528 165.696h44.592a16 16 0 0 1 16 16v81.056a16 16 0 0 1-16 16h-16a16 16 0 0 1-16-16V434.08h-38a16 16 0 0 1-15.584-12.368L620.576 256h-96.048a16 16 0 0 1-16-16zM313.744 616.112a33.488 33.488 0 1 1 0-66.992 33.488 33.488 0 0 1 0 66.992z" p-id="18837"></path></svg>