<?xml version="1.0" standalone="no"?><!DOCTYPE svg PUBLIC "-//W3C//DTD SVG 1.1//EN" "http://www.w3.org/Graphics/SVG/1.1/DTD/svg11.dtd"><svg t="1588299961323" class="icon" viewBox="0 0 1024 1024" version="1.1" xmlns="http://www.w3.org/2000/svg" p-id="18974" xmlns:xlink="http://www.w3.org/1999/xlink" width="200" height="200"><defs><style type="text/css"></style></defs><path d="M518.256 480.048v41.04h76.88a16 16 0 0 1 16 16v16a16 16 0 0 1-16 16H518.24v81.696a16 16 0 0 1-16 16h-16a16 16 0 0 1-16-16v-81.696h-76.864a16 16 0 0 1-16-16v-16a16 16 0 0 1 16-16h76.864v-41.04h-76.864a16 16 0 0 1-16-16v-16a16 16 0 0 1 16-16h52.192l-54.032-64.4a16 16 0 0 1 1.984-22.544l12.256-10.272a16 16 0 0 1 22.528 1.968l65.936 78.56 65.936-78.56a16 16 0 0 1 22.544-1.968l12.256 10.272a16 16 0 0 1 1.968 22.56l-54.032 64.384h52.208a16 16 0 0 1 16 16v16a16 16 0 0 1-16 16H518.24z m121.056 139.232l119.488 119.488a87.312 87.312 0 0 0-119.488-119.488z m84.752 152.64l-117.904-117.904a87.312 87.312 0 0 0 117.92 117.92z m-40.592 58a135.312 135.312 0 1 1 0-270.608 135.312 135.312 0 0 1 0 270.608z m69.92-313.168a16 16 0 0 1-16-16V240H240v519.648h271.648a16 16 0 0 1 16 16v16a16 16 0 0 1-16 16H208a16 16 0 0 1-16-16V208a16 16 0 0 1 16-16h561.392a16 16 0 0 1 16 16v292.752a16 16 0 0 1-16 16h-16z" p-id="18975"></path></svg>