<?xml version="1.0" standalone="no"?><!DOCTYPE svg PUBLIC "-//W3C//DTD SVG 1.1//EN" "http://www.w3.org/Graphics/SVG/1.1/DTD/svg11.dtd"><svg class="icon" width="200px" height="200.00px" viewBox="0 0 1024 1024" version="1.1" xmlns="http://www.w3.org/2000/svg"><path fill="#333333" d="M516.736 176c41.952 0 76.032 32.752 77.856 73.648l0.064 3.424v2.224l24.352 0.016c48.736 0 90.032 34.8 90.032 79.632 0 19.04-7.44 36.24-19.728 49.76C717.68 405.856 736 439.312 736 476.976v271.104C736 812.112 683.072 864 617.792 864H422.208C356.928 864 304 812.112 304 748.08V476.976c0-37.648 18.304-71.12 46.672-92.288-12.272-13.504-19.712-30.72-19.712-49.744 0-43.712 39.264-77.888 86.4-79.568l3.632-0.064 17.808-0.016v-2.224c0-42.48 34.816-77.072 77.936-77.072z m101.056 238.56H422.208c-35.152 0-63.648 27.936-63.648 62.4v271.12c0 34.48 28.48 62.416 63.648 62.416h195.584c35.152 0 63.648-27.936 63.648-62.4v-42.192h-90.528a16 16 0 0 1-16-16v-22.56a16 16 0 0 1 16-16h90.528v-77.632h-90.528a16 16 0 0 1-16-16v-22.56a16 16 0 0 1 16-16h90.528v-42.176c0-33.392-26.736-60.656-60.368-62.336l-3.28-0.08z m-101.056-185.056c-12.064 0-22.128 9.28-23.264 21.28l-0.112 2.288v28.992c0 13.984-10.96 25.472-24.928 26.64l-2.352 0.112h-45.088c-20.288 0-35.472 12.8-35.472 26.128 0 12.688 13.76 24.896 32.608 26.032l2.88 0.08h198c20.288 0 35.472-12.8 35.472-26.112 0-12.688-13.776-24.912-32.608-26.048l-2.864-0.08h-51.616a28.16 28.16 0 0 1-2.48-0.112l2.48 0.112a28.144 28.144 0 0 1-12.544-2.992 27.392 27.392 0 0 1-12.256-12.608 26.192 26.192 0 0 1-2.4-8.848l-0.08-2.304v-28.992c0-13.088-10.56-23.568-23.376-23.568z" /></svg>