<?xml version="1.0" standalone="no"?><!DOCTYPE svg PUBLIC "-//W3C//DTD SVG 1.1//EN" "http://www.w3.org/Graphics/SVG/1.1/DTD/svg11.dtd"><svg t="1588299984255" class="icon" viewBox="0 0 1024 1024" version="1.1" xmlns="http://www.w3.org/2000/svg" p-id="19526" xmlns:xlink="http://www.w3.org/1999/xlink" width="200" height="200"><defs><style type="text/css"></style></defs><path d="M224 514.352c50.112 86.128 139.024 130.816 269.92 134.144 5.264 0.128 16 1.936 16 15.728v16.992c0 15.312-10.256 15.424-15.312 15.312-117.904-2.704-208.656-36.8-270.608-102.272v119.488h571.84V336.592c0-10.368-9.52-18.304-20.768-16.24-3.392 0.624-7.456 3.232-10.96 7.68l-89.552 113.648H345.248l-14.416-18.304L255.68 328c-3.488-4.416-7.536-7.04-10.944-7.648-11.248-2.064-20.752 5.872-20.752 16.24v177.76zM766.448 273.12c41.344-7.568 77.376 23.76 77.376 63.456v408.56a16.64 16.64 0 0 1-16.688 16.592H192.688A16.64 16.64 0 0 1 176 745.152V336.592c0-39.68 36.032-71.024 77.392-63.456 16 2.912 30.016 12.448 40.032 25.184l75.104 95.36h282.752l75.12-95.36c10.016-12.736 24.048-22.272 40.048-25.184z" p-id="19527"></path></svg>