<?xml version="1.0" standalone="no"?><!DOCTYPE svg PUBLIC "-//W3C//DTD SVG 1.1//EN" "http://www.w3.org/Graphics/SVG/1.1/DTD/svg11.dtd"><svg class="icon" width="200px" height="200.00px" viewBox="0 0 1024 1024" version="1.1" xmlns="http://www.w3.org/2000/svg"><path fill="#333333" d="M428.624 226.64a236.288 236.288 0 0 0-5.04 48.672c0 128.48 102.928 232.64 229.888 232.64 55.264 0 105.968-19.712 145.632-52.608 13.632-11.312 44.16-6.96 46.192 9.312 1.792 14.176 2.704 28.64 2.704 43.312C848 695.76 697.568 848 512 848s-336-152.24-336-340.032c0-140.576 84.288-261.216 204.512-313.008 20.912-9.008 51.952 13.392 48.112 31.68z m-57.808 32.832l-0.288 0.176c-86.08 50.432-141.328 144.176-141.328 248.32 0 158.448 126.72 286.688 282.8 286.688 149.12 0 271.44-117.072 282.048-265.696l0.32-5.552-5.632 3.2a279.808 279.808 0 0 1-128.416 34.624l-6.848 0.08c-156.464 0-283.104-128.16-283.104-286 0-2.88 0.048-5.76 0.128-8.64l0.32-7.2z m393.824-67.408a16 16 0 0 1 16 16v21.216a15.936 15.936 0 0 1-1.648 7.072 15.872 15.872 0 0 1-4.8 8.064l-113.344 102.288h103.792a16 16 0 0 1 16 16v21.216a16 16 0 0 1-16 16H588.192a16 16 0 0 1-16-16V362.72c0-3.936 1.408-7.536 3.76-10.32 0.752-1.12 1.648-2.192 2.704-3.152l115.184-103.984h-105.648a16 16 0 0 1-16-16v-21.2a16 16 0 0 1 16-16H764.64z" /></svg>