<?xml version="1.0" standalone="no"?><!DOCTYPE svg PUBLIC "-//W3C//DTD SVG 1.1//EN" "http://www.w3.org/Graphics/SVG/1.1/DTD/svg11.dtd"><svg t="1588300051889" class="icon" viewBox="0 0 1024 1024" version="1.1" xmlns="http://www.w3.org/2000/svg" p-id="21734" xmlns:xlink="http://www.w3.org/1999/xlink" width="200" height="200"><defs><style type="text/css"></style></defs><path d="M674.784 797.072v-7.84c0-7.104-4.576-24.512-13.168-44.32a310.816 310.816 0 0 0-45.536-73.744c-47.168-56.736-108.48-89.76-182.688-89.76-74.192 0-135.52 33.04-182.672 89.808a310.976 310.976 0 0 0-45.552 73.808c-8.576 19.84-13.168 37.264-13.168 44.4v7.648h482.784zM589.424 506.08c1.2-6.432 7.184-8 10.272-8.272a112.192 112.192 0 0 0 101.696-111.68V335.68a112.192 112.192 0 0 0-96.784-111.12c-5.024-0.704-15.392-0.704-15.392-17.584v-16.512c0-16.256 10.768-14.688 16.032-14.16 80.944 8.032 144.144 76.32 144.144 159.36v50.448c0 57.168-29.952 107.344-75.008 135.68 51.68 21.072 95.68 55.28 130.608 98.48 36.96 45.712 60.992 99.808 60.992 132.416v76.384a16 16 0 0 1-16 16h-16a16 16 0 0 1-16-16v-76.384c0-20.048-19.68-64.336-50.32-102.24-40.56-50.176-94.88-85.856-160.224-98.8a57.952 57.952 0 0 0-5.184-0.736 16 16 0 0 1-14.352-15.92v-20.24c-0.128-3.92 0.48-6.704 1.52-8.672z m-224.672 35.76a150.288 150.288 0 0 1-87.2-136.416V349.76a150.256 150.256 0 1 1 300.528 0v55.664a150.256 150.256 0 0 1-83.472 134.64c156.944 35.152 228.16 199.648 228.16 249.168v39.84a16 16 0 0 1-16 16H160a16 16 0 0 1-16-16v-39.648c0-48.832 68.992-208.992 220.752-247.584zM427.84 247.52a102.256 102.256 0 0 0-102.256 102.256v55.664a102.256 102.256 0 1 0 204.512 0V349.76a102.256 102.256 0 0 0-102.24-102.24z" p-id="21735"></path></svg>