<?xml version="1.0" standalone="no"?><!DOCTYPE svg PUBLIC "-//W3C//DTD SVG 1.1//EN" "http://www.w3.org/Graphics/SVG/1.1/DTD/svg11.dtd"><svg class="icon" width="200px" height="200.00px" viewBox="0 0 1024 1024" version="1.1" xmlns="http://www.w3.org/2000/svg"><path fill="#333333" d="M468.592 208.432a67.008 67.008 0 0 1 88 0.08l251.344 217.792A70.24 70.24 0 0 1 832 479.392V762.4C832 800.832 801.504 832 763.872 832H260.128C222.496 832 192 800.832 192 762.384V479.456a70.24 70.24 0 0 1 24.16-53.2z m57.28 37.12a20.256 20.256 0 0 0-26.624-0.016L246.832 463.376c-4.64 4-7.312 9.872-7.312 16.08v282.928c0 11.616 9.232 21.04 20.608 21.04h503.744c11.376 0 20.608-9.424 20.608-21.04V479.392c0-6.176-2.672-12.048-7.28-16.048zM512 404.08c47.712 0 86.4 39.52 86.4 88.304a88.832 88.832 0 0 1-33.952 70.176c74.368 21.888 102.64 90.4 107.296 146.032 0.48 5.76 0 16.928-16.224 16.832l-286.848 0.096c-19.04 0-16.848-12.288-16.24-18.72 5.152-55.136 33.648-122.528 107.136-144.24a88.8 88.8 0 0 1-33.968-70.176c0-48.768 38.688-88.32 86.4-88.32z m0 199.936c-55.792 0-90.848 28.352-105.312 71.36l-0.512 1.552 211.68-0.08-0.528-1.632c-14.048-41.824-47.584-69.664-100.848-71.136L512 604z m0-151.36c-21.472 0-38.88 17.776-38.88 39.728 0 21.92 17.408 39.728 38.88 39.728s38.88-17.792 38.88-39.728c0-21.952-17.408-39.744-38.88-39.744z" /></svg>