<?xml version="1.0" standalone="no"?><!DOCTYPE svg PUBLIC "-//W3C//DTD SVG 1.1//EN" "http://www.w3.org/Graphics/SVG/1.1/DTD/svg11.dtd"><svg t="1588300005666" class="icon" viewBox="0 0 1024 1024" version="1.1" xmlns="http://www.w3.org/2000/svg" p-id="20216" xmlns:xlink="http://www.w3.org/1999/xlink" width="200" height="200"><defs><style type="text/css"></style></defs><path d="M582.944 617.232a98.256 98.256 0 0 1-57.008-89.2v-36.4a98.24 98.24 0 1 1 196.496 0v36.4a98.24 98.24 0 0 1-54.576 88.032c102.608 22.976 149.184 130.544 149.184 162.912v20.512a16 16 0 0 1-16 16H454.608a16 16 0 0 1-16-16v-20.384c0-31.92 45.12-136.64 144.336-161.872zM753.392 421.44a16 16 0 0 1-16-16V256H240v519.648h138.08a16 16 0 0 1 16 16v16a16 16 0 0 1-16 16H208a16 16 0 0 1-16-16V224a16 16 0 0 1 16-16h561.392a16 16 0 0 1 16 16v181.44a16 16 0 0 1-16 16h-16z m-465.04 35.6v-16a16 16 0 0 1 16-16h68.16a16 16 0 0 1 16 16v16a16 16 0 0 1-16 16h-68.16a16 16 0 0 1-16-16z m0-105.728v-16a16 16 0 0 1 16-16h212.864a16 16 0 0 1 16 16v16a16 16 0 0 1-16 16H304.352a16 16 0 0 1-16-16z m446.144 361.104c-27.872-33.536-63.472-52.704-106.672-52.704-43.2 0-78.8 19.184-106.656 52.72-15.344 18.464-26.896 40.752-31.872 55.056H766.4c-4.96-14.272-16.544-36.592-31.904-55.072z m-110.304-271.024a50.24 50.24 0 0 0-50.24 50.24v36.4a50.24 50.24 0 1 0 100.48 0v-36.4a50.24 50.24 0 0 0-50.24-50.24z" p-id="20217"></path></svg>