<?xml version="1.0" standalone="no"?><!DOCTYPE svg PUBLIC "-//W3C//DTD SVG 1.1//EN" "http://www.w3.org/Graphics/SVG/1.1/DTD/svg11.dtd"><svg t="1588300036923" class="icon" viewBox="0 0 1024 1024" version="1.1" xmlns="http://www.w3.org/2000/svg" p-id="21458" xmlns:xlink="http://www.w3.org/1999/xlink" width="200" height="200"><defs><style type="text/css"></style></defs><path d="M325.568 409.744v-53.92C325.568 256.512 406.08 176 505.392 176c99.312 0 179.84 80.512 179.84 179.84v53.904h117.552a16 16 0 0 1 16 16v405.568a16 16 0 0 1-16 16H208a16 16 0 0 1-16-16V425.744a16 16 0 0 1 16-16h117.568z m311.648 0v-53.92a131.84 131.84 0 0 0-263.648 0v53.92h263.648z m-228.864 121.392h16a16 16 0 0 1 16 16v34.784a16 16 0 0 1-16 16h-16a16 16 0 0 1-16-16v-34.784a16 16 0 0 1 16-16z m178.08 2.784h16a16 16 0 0 1 16 16v34.768a16 16 0 0 1-16 16h-16a16 16 0 0 1-16-16V549.92a16 16 0 0 1 16-16zM240 799.312h530.784V457.744H240v341.568z m149.552-104.864l11.712-11.712c8.128-8.08 18.272-2.368 22.64 1.008a131.888 131.888 0 0 0 162.496-0.928c3.936-3.136 11.36-9.76 21.248-0.272l12.4 12.416c8.784 9.104 3.984 18.992-0.032 22.352a179.872 179.872 0 0 1-230.608 0.288c-4.128-3.456-11.296-11.488 0.144-23.152z" p-id="21459"></path></svg>