<?xml version="1.0" standalone="no"?><!DOCTYPE svg PUBLIC "-//W3C//DTD SVG 1.1//EN" "http://www.w3.org/Graphics/SVG/1.1/DTD/svg11.dtd"><svg t="1588299704125" class="icon" viewBox="0 0 1024 1024" version="1.1" xmlns="http://www.w3.org/2000/svg" p-id="11384" xmlns:xlink="http://www.w3.org/1999/xlink" width="200" height="200"><defs><style type="text/css"></style></defs><path d="M272 752h216a16 16 0 0 1 16 16v16a16 16 0 0 1-16 16H240a16 16 0 0 1-16-16V224a16 16 0 0 1 16-16h496a16 16 0 0 1 16 16v272a16 16 0 0 1-16 16h-16a16 16 0 0 1-16-16V256H272v496z m64-432h96a16 16 0 0 1 16 16v16a16 16 0 0 1-16 16h-96a16 16 0 0 1-16-16v-16a16 16 0 0 1 16-16z m0 96h240a16 16 0 0 1 16 16v16a16 16 0 0 1-16 16H336a16 16 0 0 1-16-16v-16a16 16 0 0 1 16-16z m288 360a120 120 0 1 1 0-240 120 120 0 0 1 0 240z m0-48a72 72 0 1 0 0-144 72 72 0 0 0 0 144z m165.632 81.36l-18.192 18.192a11.136 11.136 0 0 1-15.744 0l-52.144-52.144a11.136 11.136 0 0 1 0-15.744l18.208-18.192a11.136 11.136 0 0 1 15.744 0l52.128 52.144a11.136 11.136 0 0 1 0 15.744z" p-id="11385"></path></svg>