<?xml version="1.0" standalone="no"?><!DOCTYPE svg PUBLIC "-//W3C//DTD SVG 1.1//EN" "http://www.w3.org/Graphics/SVG/1.1/DTD/svg11.dtd"><svg t="1588299745132" class="icon" viewBox="0 0 1024 1024" version="1.1" xmlns="http://www.w3.org/2000/svg" p-id="12764" xmlns:xlink="http://www.w3.org/1999/xlink" width="200" height="200"><defs><style type="text/css"></style></defs><path d="M368 392v-65.392C368 243.712 432.16 176 512 176s144 67.712 144 150.608V392h144a16 16 0 0 1 16 16v416a16 16 0 0 1-16 16H224a16 16 0 0 1-16-16v-416a16 16 0 0 1 16-16h144z m48 0h192v-65.392C608 269.648 564.72 224 512 224s-96 45.664-96 102.608V392z m-160 48v352h512v-352H256z m280 144v80a16 16 0 0 1-16 16h-16a16 16 0 0 1-16-16v-80a16 16 0 0 1 16-16h16a16 16 0 0 1 16 16z" p-id="12765"></path></svg>