<?xml version="1.0" standalone="no"?><!DOCTYPE svg PUBLIC "-//W3C//DTD SVG 1.1//EN" "http://www.w3.org/Graphics/SVG/1.1/DTD/svg11.dtd"><svg t="1588300089655" class="icon" viewBox="0 0 1024 1024" version="1.1" xmlns="http://www.w3.org/2000/svg" p-id="23114" xmlns:xlink="http://www.w3.org/1999/xlink" width="200" height="200"><defs><style type="text/css"></style></defs><path d="M404.528 524.528c-45.728 0-85.216-28.736-85.216-68.528s39.488-68.528 85.216-68.528c45.712 0 85.216 28.736 85.216 68.528s-39.52 68.528-85.216 68.528z m0-48c21.904 0 37.216-11.136 37.216-20.528s-15.312-20.528-37.216-20.528c-21.92 0-37.216 11.136-37.216 20.528s15.312 20.528 37.216 20.528z m211.472 48c-45.712 0-85.216-28.736-85.216-68.528s39.504-68.528 85.216-68.528c45.712 0 85.216 28.736 85.216 68.528s-39.504 68.528-85.216 68.528z m0-48c21.904 0 37.216-11.136 37.216-20.528s-15.312-20.528-37.216-20.528c-21.904 0-37.216 11.136-37.216 20.528s15.312 20.528 37.216 20.528z m-348.24-135.648l13.904 7.872c12.48 6.72 9.184 17.408 6.816 22.176C267.328 413.44 256 461.568 256 511.648c0 50.896 11.696 99.76 33.504 142.784 2.112 4.16 6.624 13.168-5.168 19.024-4.272 2.416-9.904 5.6-16.896 9.6-13.184 6.688-18.032-1.6-20.368-6.176C221.616 626.96 208 570.4 208 511.648c0-58.528 13.52-114.912 38.816-164.72 2.352-4.64 6.4-13.36 20.944-6.048z m454-45.312c-5.136 4.224-9.328 7.68-12.576 10.32-11.152 7.712-20 1.36-23.904-2.848C638.4 252.672 576.304 224 510.24 224c-65.184 0-126.56 27.936-173.216 77.136-4.192 4.416-11.52 13.12-24.208 3.808l-13.952-11.568c-11.632-7.76-4.112-17.216-0.544-21.12C354.24 211.2 429.632 176 510.24 176c80.816 0 156.384 35.376 212.304 96.672 3.84 4.224 10.304 13.936-0.8 22.896z m29.76 45.264c14.736-7.264 18.768 1.968 21.232 6.864 25.056 49.6 38.432 105.728 38.432 163.952 0 58.608-13.552 115.056-38.896 164.896-2.4 4.704-7.28 13.2-21.44 5.984l-13.776-7.824c-13.84-6.992-8.864-17.312-6.464-22.112 21.216-42.56 32.576-90.768 32.576-140.944 0-49.952-11.264-97.952-32.32-140.384-2.4-4.88-6.08-15.728 6.72-22.56 3.6-2.032 8.24-4.64 13.92-7.872zM721.328 731.84c12.48 9.952 5.76 18.272 2.272 22.128-56.032 62-132.016 97.808-213.344 97.808-80.48 0-155.776-35.088-211.648-95.968-3.664-4-10.72-11.904 0.64-21.712l13.392-11.104c12.672-9.6 19.968-1.04 24.032 3.264 46.72 49.44 108.224 77.52 173.6 77.52 66.944 0 129.856-29.456 176.944-81.136 3.232-3.568 8.432-10.64 21.184-1.392l12.928 10.592z m-211.072-29.232c-54.88 0-101.92-33.6-101.92-79.648 0-25.792 15.088-43.28 39.52-51.088 15.472-4.944 32.928-6.304 62.4-6.304s46.944 1.36 62.4 6.304c24.448 7.808 39.52 25.28 39.52 51.088 0 46.064-47.04 79.648-101.92 79.648z m0-48c31.184 0 53.92-16.24 53.92-31.648 0-3.184-0.272-3.488-6.128-5.36-9.168-2.928-23.232-4.032-47.792-4.032-24.544 0-38.608 1.104-47.776 4.032-5.856 1.872-6.128 2.176-6.128 5.36 0 15.408 22.72 31.648 53.92 31.648z" p-id="23115"></path></svg>