<?xml version="1.0" standalone="no"?><!DOCTYPE svg PUBLIC "-//W3C//DTD SVG 1.1//EN" "http://www.w3.org/Graphics/SVG/1.1/DTD/svg11.dtd"><svg class="icon" width="200px" height="200.00px" viewBox="0 0 1024 1024" version="1.1" xmlns="http://www.w3.org/2000/svg"><path fill="#333333" d="M316.8 557.6a15.632 15.632 0 0 0-9.6 4.208c-2.72 2.864-3.328 7.184-3.184 9.456 6.576 102.16 86.352 184.32 187.184 193.952v53.216a16 16 0 0 0 16 16h16a16 16 0 0 0 16-16v-52.944c20.72-1.664 40.864-6.4 59.936-14.016a12.912 12.912 0 0 0 6.624-6.944c1.344-3.472 1.072-8.08 0.176-9.952l-9.952-20.864c-0.848-1.76-3.392-5.264-7.2-6.464-3.472-1.12-8.16-0.064-10.112 0.688a158.144 158.144 0 0 1-56.144 10.224h-11.456c-84 0-152.88-65.392-159.04-148.432a16.96 16.96 0 0 0-3.872-8.4 12.128 12.128 0 0 0-8.224-3.744z m40.64-350.56a16 16 0 0 0-22.24-4.192l-13.216 9.024a16 16 0 0 0-4.192 22.24l366.88 536.928a16 16 0 0 0 22.24 4.192l13.216-9.024a16 16 0 0 0 4.176-22.24z m47.36 193.216a168.64 168.64 0 0 0-21.6 0c-10.4 1.072-13.6 8.176-13.6 12.272v123.84a147.872 147.872 0 0 0 192.688 140.96c4.112-0.976 8.112-7.2 4.56-15.2l-8.256-21.008c-1.792-7.792-9.792-10.672-14.96-8.32a99.872 99.872 0 0 1-126.032-96.432v-123.84c0-8-5.712-11.2-12.8-12.272z m289.344 157.328c-2.256 0.016-6.032 0.208-8.544 2.144-3.088 2.368-4.416 7.184-4.832 9.536-2.032 11.408-6.4 26.752-12.272 43.36-0.688 1.984-1.888 6.896-0.496 10.304 1.424 3.44 5.456 5.376 7.36 6.08l21.456 8.176c2.08 0.8 7.552 2.784 11.344 0.944 2.976-1.456 4.544-6.48 5.152-8.192l0.416-1.2c8.08-22.8 13.76-43.584 15.632-60.192a10.4 10.4 0 0 0-3.76-8.176c-2.56-2.08-6.72-2.784-8.8-2.784zM517.472 192a147.36 147.36 0 0 0-90.88 31.2c-7.392 4.848-8.992 14.928-1.984 21.856l12.112 12.368c6.48 6.304 16.08 4.704 22.656 1.2a99.872 99.872 0 0 1 157.984 81.264v196.48c0 5.44 1.84 13.76 12.784 15.328l20 2.688c9.056 0.544 14.864-6.016 15.056-11.2l0.16-4.48V339.856A147.872 147.872 0 0 0 517.472 192z" /></svg>