<?xml version="1.0" standalone="no"?><!DOCTYPE svg PUBLIC "-//W3C//DTD SVG 1.1//EN" "http://www.w3.org/Graphics/SVG/1.1/DTD/svg11.dtd"><svg t="1588300033975" class="icon" viewBox="0 0 1024 1024" version="1.1" xmlns="http://www.w3.org/2000/svg" p-id="21320" xmlns:xlink="http://www.w3.org/1999/xlink" width="200" height="200"><defs><style type="text/css"></style></defs><path d="M432.352 741.216h382.96a16 16 0 0 1 16 16v16a16 16 0 0 1-16 16H432.352v32.352a16 16 0 0 1-16 16h-16a16 16 0 0 1-16-16v-112.704a16 16 0 0 1 16-16h16a16 16 0 0 1 16 16v32.352z m211.472-244.864h171.488a16 16 0 0 1 16 16v16a16 16 0 0 1-16 16H643.824v32.336a16 16 0 0 1-16 16h-16a16 16 0 0 1-16-16V464a16 16 0 0 1 16-16h16a16 16 0 0 1 16 16v32.352z m-211.472-256h382.96a16 16 0 0 1 16 16v16a16 16 0 0 1-16 16H432.352v32.336a16 16 0 0 1-16 16h-16a16 16 0 0 1-16-16V208a16 16 0 0 1 16-16h16a16 16 0 0 1 16 16v32.352z m-74.08 16v16a16 16 0 0 1-16 16H224a16 16 0 0 1-16-16v-16a16 16 0 0 1 16-16h118.256a16 16 0 0 1 16 16z m211.472 256v16a16 16 0 0 1-16 16H224a16 16 0 0 1-16-16v-16a16 16 0 0 1 16-16h329.744a16 16 0 0 1 16 16zM358.24 757.216v16a16 16 0 0 1-16 16H224a16 16 0 0 1-16-16v-16a16 16 0 0 1 16-16h118.256a16 16 0 0 1 16 16z" p-id="21321"></path></svg>