<?xml version="1.0" standalone="no"?><!DOCTYPE svg PUBLIC "-//W3C//DTD SVG 1.1//EN" "http://www.w3.org/Graphics/SVG/1.1/DTD/svg11.dtd"><svg t="1588299478508" class="icon" viewBox="0 0 1024 1024" version="1.1" xmlns="http://www.w3.org/2000/svg" p-id="7658" xmlns:xlink="http://www.w3.org/1999/xlink" width="200" height="200"><defs><style type="text/css"></style></defs><path d="M600 476.72V416a16 16 0 0 1 16-16h16a16 16 0 0 1 16 16v192a16 16 0 0 1-16 16h-16a16 16 0 0 1-16-16v-76.16l-143.104 86.928a32 32 0 0 1-48.608-27.36V417.152a32 32 0 0 1 48.608-27.36l143.104 86.944zM512 800c159.056 0 288-128.944 288-288s-128.944-288-288-288-288 128.944-288 288 128.944 288 288 288z m0 48c-185.568 0-336-150.432-336-336s150.432-336 336-336 336 150.432 336 336-150.432 336-336 336z m-55.712-402.432v117.408l96.608-58.704-96.608-58.704z" p-id="7659"></path></svg>