<?xml version="1.0" standalone="no"?><!DOCTYPE svg PUBLIC "-//W3C//DTD SVG 1.1//EN" "http://www.w3.org/Graphics/SVG/1.1/DTD/svg11.dtd"><svg t="1588299764118" class="icon" viewBox="0 0 1024 1024" version="1.1" xmlns="http://www.w3.org/2000/svg" p-id="13454" xmlns:xlink="http://www.w3.org/1999/xlink" width="200" height="200"><defs><style type="text/css"></style></defs><path d="M634.592 611.776c-8.256 7.632-20.032 20.704-35.04 38.976l-12.96 15.776-17.648-10.256c-84.352-49.008-152.368-121.216-190.832-204.912l-7.2-15.696 12.592-11.824c17.232-16.192 29.824-28.912 37.6-37.952a122.24 122.24 0 0 0 4.096-4.976 340.08 340.08 0 0 1-12.272-98.624 22.56 22.56 0 0 0-1.312-0.72 47.248 47.248 0 0 0-17.92-4.288l-99.44-3.472c-3.936-0.16-4.432 0.32-4.576 4.256-8.864 254 189.28 466.464 443.264 475.344 3.76 0.128 4.448-0.512 4.576-4.272l3.376-96.8c0.272-7.584 0.272-11.36-0.08-15.552-0.704-8.352-0.32-7.792-1.84-7.712-33.952 1.2-66.096-5.376-102.528-18.992a102.768 102.768 0 0 0-1.856 1.696z m-58.688-7.488c10.208-11.84 18.88-21.072 26.08-27.744 17.44-16.16 29.568-23.136 45.328-13.696 33.584 13.12 61.44 19.264 89.76 18.256 33.072-1.44 48.96 20.864 51.584 51.632 0.56 6.672 0.544 11.84 0.208 21.28l-3.376 96.8c-1.056 30.352-24.064 51.616-54.224 50.56-280.48-9.792-499.344-244.48-489.552-524.992 1.072-30.432 23.776-51.616 54.224-50.56l99.424 3.472c33.872 1.184 66.8 17.824 65.648 51.008a292.64 292.64 0 0 0 12.56 95.088c5.776 18.72-5.152 33.76-44.336 71.248 32.336 62.4 83.712 117.264 146.672 157.648z" p-id="13455"></path></svg>