<?xml version="1.0" standalone="no"?><!DOCTYPE svg PUBLIC "-//W3C//DTD SVG 1.1//EN" "http://www.w3.org/Graphics/SVG/1.1/DTD/svg11.dtd"><svg t="1588299584014" class="icon" viewBox="0 0 1024 1024" version="1.1" xmlns="http://www.w3.org/2000/svg" p-id="10142" xmlns:xlink="http://www.w3.org/1999/xlink" width="200" height="200"><defs><style type="text/css"></style></defs><path d="M456 531.84V608a16 16 0 0 1-16 16h-16a16 16 0 0 1-16-16V416a16 16 0 0 1 16-16h16a16 16 0 0 1 16 16v60.736l143.104-86.944a32 32 0 0 1 48.624 27.344v174.288a32 32 0 0 1-48.624 27.36L456 531.808zM512 800c159.056 0 288-128.944 288-288s-128.944-288-288-288-288 128.944-288 288 128.944 288 288 288z m0 48c-185.568 0-336-150.432-336-336s150.432-336 336-336 336 150.432 336 336-150.432 336-336 336z m87.728-402.432l-96.64 58.72 96.64 58.688v-117.408z" p-id="10143"></path></svg>