<?xml version="1.0" standalone="no"?><!DOCTYPE svg PUBLIC "-//W3C//DTD SVG 1.1//EN" "http://www.w3.org/Graphics/SVG/1.1/DTD/svg11.dtd"><svg t="1588299512585" class="icon" viewBox="0 0 1024 1024" version="1.1" xmlns="http://www.w3.org/2000/svg" p-id="8348" xmlns:xlink="http://www.w3.org/1999/xlink" width="200" height="200"><defs><style type="text/css"></style></defs><path d="M683.472 224v269.28a29.536 29.536 0 0 1-45.568 24.8l-67.456-43.36-67.488 43.36a29.6 29.6 0 0 1-45.568-24.8V224H256v566.96h511.312V224h-83.84z m-48 0h-130.08v235.472l49.056-31.52a29.616 29.616 0 0 1 32.016 0l49.008 31.504V224z m-416.336-48H804.16c6.144 0 11.136 4.976 11.136 11.136v640.688a11.136 11.136 0 0 1-11.136 11.136H219.136a11.136 11.136 0 0 1-11.136-11.136V187.136c0-6.16 4.976-11.136 11.136-11.136z" p-id="8349"></path></svg>