<?xml version="1.0" standalone="no"?><!DOCTYPE svg PUBLIC "-//W3C//DTD SVG 1.1//EN" "http://www.w3.org/Graphics/SVG/1.1/DTD/svg11.dtd"><svg t="1588299767348" class="icon" viewBox="0 0 1024 1024" version="1.1" xmlns="http://www.w3.org/2000/svg" p-id="13592" xmlns:xlink="http://www.w3.org/1999/xlink" width="200" height="200"><defs><style type="text/css"></style></defs><path d="M432.56 511.168a150.192 150.192 0 0 1-73.6-129.248V326.24a150.256 150.256 0 0 1 300.512 0v55.664a150.176 150.176 0 0 1-72.048 128.32c26.368 5.92 51.696 14.88 75.552 26.528a14.72 14.72 0 0 1 0.24 26.336l-20.576 10.544a16 16 0 0 1-13.552 0.48c-7.424-3.152-13.28-5.488-17.584-7.04A296.16 296.16 0 0 0 240 728.928l0.016 53.008h325.76a16 16 0 0 1 11.648 5.04l17.824 18.96a14.24 14.24 0 0 1-10.368 24H208a16 16 0 0 1-16-16v-80l0.32-0.048c0-5.28-0.032-10.656 0.336-16.096 0.368-5.408 4.416-10.608 6.8-15.792a344.432 344.432 0 0 1 233.104-190.816zM509.216 224a102.256 102.256 0 0 0-102.256 102.256v55.664a102.256 102.256 0 0 0 204.512 0V326.24A102.256 102.256 0 0 0 509.232 224z m266.048 481.92c6.72-6.592 10.48-15.28 10.48-24.528 0-19.392-16.688-35.472-37.68-35.472-14.64 0-27.648 7.904-33.888 19.936-8.96 17.264-33.648 17.264-42.608 0-6.24-12.032-19.248-19.936-33.888-19.936-21.008 0-37.68 16.08-37.68 35.472 0 9.232 3.744 17.888 10.432 24.48 1.216 1.2 2.256 2.48 3.152 3.824l76.704 78.688 83.152-80.448c0.56-0.688 1.168-1.36 1.824-2zM552 681.408c0-46.304 38.56-83.472 85.68-83.472 20.672 0 40.064 7.2 55.2 19.6a86.944 86.944 0 0 1 55.184-19.6c47.12 0 85.68 37.168 85.68 83.472a82.08 82.08 0 0 1-22.352 56.224c-0.736 0.96-1.536 1.872-2.448 2.736l-102.464 99.152a24 24 0 0 1-33.872-0.48l-96.64-99.168a24.512 24.512 0 0 1-3.04-3.776 82 82 0 0 1-20.928-54.688z" p-id="13593"></path></svg>