<?xml version="1.0" standalone="no"?><!DOCTYPE svg PUBLIC "-//W3C//DTD SVG 1.1//EN" "http://www.w3.org/Graphics/SVG/1.1/DTD/svg11.dtd"><svg class="icon" width="200px" height="200.00px" viewBox="0 0 1024 1024" version="1.1" xmlns="http://www.w3.org/2000/svg"><path fill="#333333" d="M670.944 752.048a16 16 0 0 1 16 16v15.52a16 16 0 0 1-16 16H353.056a16 16 0 0 1-16-16v-15.52a16 16 0 0 1 16-16h317.888zM783.552 224c25.808 0 46.88 20.528 48.368 46.4l0.08 2.912v58.048a16 16 0 0 1-16 16h-15.52a16 16 0 0 1-16-16v-58.048a0.944 0.944 0 0 0-0.464-0.8l-0.48-0.144H240.464a0.912 0.912 0 0 0-0.8 0.48l-0.128 0.464v376.88c0 0.336 0.192 0.64 0.464 0.8l0.48 0.128h543.088c0.336 0 0.64-0.176 0.8-0.464l0.128-0.48v-59.12a16 16 0 0 1 16-16H816a16 16 0 0 1 16 16v59.136c0 26.256-20.16 47.728-45.6 49.216l-2.848 0.096H240.448c-25.808 0-46.88-20.528-48.368-46.416L192 650.192V273.312c0-26.256 20.16-47.728 45.6-49.232l2.848-0.08h543.104z m-80.208 103.04l115.712 115.696a16 16 0 0 1 0 22.624l-118.176 118.176a16 16 0 0 1-22.624 0l-10.976-10.976a16 16 0 0 1 0-22.624l70.88-70.896H487.088a16 16 0 0 1-16-16v-15.52a16 16 0 0 1 16-16h252.352l-70.304-70.288a16 16 0 0 1-1.328-21.12l1.328-1.504 11.568-11.584a16 16 0 0 1 22.64 0z" /></svg>