<?xml version="1.0" standalone="no"?><!DOCTYPE svg PUBLIC "-//W3C//DTD SVG 1.1//EN" "http://www.w3.org/Graphics/SVG/1.1/DTD/svg11.dtd"><svg class="icon" width="200px" height="200.00px" viewBox="0 0 1024 1024" version="1.1" xmlns="http://www.w3.org/2000/svg"><path fill="#333333" d="M504 176C693.984 176 848 330.016 848 520c0 54.464-12.688 107.12-36.64 154.624l-3.632 7.024 17.376 138.928a16 16 0 0 1-17.856 17.872l-137.136-17.152-6.56 3.536a342.368 342.368 0 0 1-151.52 39.072L504 864C314.016 864 160 709.984 160 520S314.016 176 504 176z m0 48.16c-163.376 0-295.84 132.464-295.84 295.84 0 163.376 132.464 295.84 295.84 295.84 53.136 0 104.176-14.016 149.024-40.224l7.04-4.112 112.112 14L757.984 672l3.904-6.928A294.352 294.352 0 0 0 799.84 520c0-163.376-132.464-295.84-295.84-295.84z m38.16 113.472l1.936 0.864 92.32 46.176a16 16 0 0 1 7.168 21.456l-7.232 14.464a16 16 0 0 1-19.744 7.888l-1.728-0.736-57.488-28.752 0.016 200.992a104.064 104.064 0 1 1-48.16-87.792v-152.16a24.096 24.096 0 0 1 32.912-22.4z m-88.8 206.448a55.888 55.888 0 1 0 0 111.792 55.888 55.888 0 0 0 0-111.792z" /></svg>