<?xml version="1.0" standalone="no"?><!DOCTYPE svg PUBLIC "-//W3C//DTD SVG 1.1//EN" "http://www.w3.org/Graphics/SVG/1.1/DTD/svg11.dtd"><svg class="icon" width="200px" height="200.00px" viewBox="0 0 1024 1024" version="1.1" xmlns="http://www.w3.org/2000/svg"><path fill="#333333" d="M735.84 259.776a26.848 26.848 0 0 1-2.384 12.256 15.92 15.92 0 0 1-4.32 6.96l-77.552 72.864H720a16 16 0 0 1 16 16v16a16 16 0 0 1-16 16h-123.84a16 16 0 0 1-16-16v-16c0-0.576 0.048-1.136 0.112-1.712a26.832 26.832 0 0 1 1.76-10.96c0.672-3.04 2.24-5.92 4.672-8.208l78.224-73.52H596.16a16 16 0 0 1-16-16v-16a16 16 0 0 1 16-16H720a16 16 0 0 1 16 16v16c0 0.8-0.064 1.568-0.16 2.32zM272 496.112c0 135.792 108.88 245.68 242.976 245.68 128.528 0 233.904-100.96 242.432-228.896a244.848 244.848 0 0 1-119.904 31.216c-136.576 0-247.104-111.552-247.104-248.928 0-3.408 0.08-6.816 0.208-10.192C318.288 328.576 272 408 272 496.112z m170.768-242.976a203.552 203.552 0 0 0-4.368 42.048c0 110.976 89.152 200.928 199.104 200.928 47.856 0 91.776-17.04 126.112-45.44 11.808-9.76 38.24-6.016 40 8.032 1.552 12.256 2.352 24.736 2.352 37.408 0 162.208-130.288 293.68-290.992 293.68S224 658.32 224 496.112c0-121.408 72.992-225.6 177.12-270.336 18.096-7.776 44.976 11.568 41.648 27.36z" /></svg>