<?xml version="1.0" standalone="no"?><!DOCTYPE svg PUBLIC "-//W3C//DTD SVG 1.1//EN" "http://www.w3.org/Graphics/SVG/1.1/DTD/svg11.dtd"><svg t="1588300099812" class="icon" viewBox="0 0 1024 1024" version="1.1" xmlns="http://www.w3.org/2000/svg" p-id="23390" xmlns:xlink="http://www.w3.org/1999/xlink" width="200" height="200"><defs><style type="text/css"></style></defs><path d="M769.392 465.52h16a16 16 0 0 1 16 16v326.128a16 16 0 0 1-16 16H224a16 16 0 0 1-16-16V224a16 16 0 0 1 16-16h426.08a16 16 0 0 1 16 16v16a16 16 0 0 1-16 16H256v519.648h497.392V481.52a16 16 0 0 1 16-16zM456.016 643.248l-11.232-11.392a16 16 0 0 1 0.16-22.624l337.6-332.992a16 16 0 0 1 22.624 0.16l11.232 11.376a16 16 0 0 1-0.16 22.64l-337.6 332.992a16 16 0 0 1-22.624-0.16z m-151.68-186.208v-16a16 16 0 0 1 16-16h68.192a16 16 0 0 1 16 16v16a16 16 0 0 1-16 16h-68.176a16 16 0 0 1-16-16z m0-105.728v-16a16 16 0 0 1 16-16h212.88a16 16 0 0 1 16 16v16a16 16 0 0 1-16 16H320.352a16 16 0 0 1-16-16z" p-id="23391"></path></svg>