<?xml version="1.0" standalone="no"?><!DOCTYPE svg PUBLIC "-//W3C//DTD SVG 1.1//EN" "http://www.w3.org/Graphics/SVG/1.1/DTD/svg11.dtd"><svg class="icon" width="200px" height="200.00px" viewBox="0 0 1024 1024" version="1.1" xmlns="http://www.w3.org/2000/svg"><path fill="#333333" d="M417.872 790.608H224a16 16 0 0 1-16-16v-16a16 16 0 0 1 16-16h37.92V451.456c0-126.352 97.728-230.08 222.608-241.968V176a16 16 0 0 1 16-16h16a16 16 0 0 1 16 16v33.488c124.864 11.888 222.608 115.616 222.608 241.968v291.152h37.92a16 16 0 0 1 16 16v16a16 16 0 0 1-16 16H599.152a90.784 90.784 0 0 1-181.296 0z m48.144 0a42.784 42.784 0 0 0 85.008 0h-85.008z m66.512-292.16v41.024h82.432a16 16 0 0 1 16 16v16a16 16 0 0 1-16 16h-82.432v81.696a16 16 0 0 1-16 16h-16a16 16 0 0 1-16-16v-81.696H402.08a16 16 0 0 1-16-16v-16a16 16 0 0 1 16-16h82.448v-41.04H402.08a16 16 0 0 1-16-16v-16a16 16 0 0 1 16-16h57.76l-54.016-64.384a16 16 0 0 1 1.968-22.56l12.256-10.272a16 16 0 0 1 22.544 1.968l65.92 78.576 65.936-78.56a16 16 0 0 1 22.56-1.984l12.24 10.288a16 16 0 0 1 1.984 22.544l-54.032 64.384h57.76a16 16 0 0 1 16 16v16a16 16 0 0 1-16 16h-82.432zM309.92 742.592h397.216V451.456c0-107.68-88.848-195.104-198.608-195.104-109.776 0-198.608 87.44-198.608 195.104v291.152z" /></svg>