<?xml version="1.0" standalone="no"?><!DOCTYPE svg PUBLIC "-//W3C//DTD SVG 1.1//EN" "http://www.w3.org/Graphics/SVG/1.1/DTD/svg11.dtd"><svg t="1588300121974" class="icon" viewBox="0 0 1024 1024" version="1.1" xmlns="http://www.w3.org/2000/svg" p-id="24056" xmlns:xlink="http://www.w3.org/1999/xlink" width="200" height="200"><defs><style type="text/css"></style></defs><path d="M528.672 685.76l0.016 0.848v34.784a16 16 0 0 1-16 16h-16a16 16 0 0 1-16-16v-34.784c0-0.288 0-0.56 0.032-0.832a152.08 152.08 0 0 1-127.088-133.152c-0.624-5.568-3.424-16.96 15.632-16.96h15.808c16.752 0 16 10.32 16.752 15.328a104.032 104.032 0 0 0 205.664 0.592c0.8-5.2 0.8-15.936 17.6-15.936h16.16c18.544 0 15.136 11.312 14.528 16.848a152.08 152.08 0 0 1-127.104 133.28zM385.392 192h16a16 16 0 0 1 16 16v57.04a16 16 0 0 1-16 16h-16a16 16 0 0 1-16-16V208a16 16 0 0 1 16-16z m111.296 0h16a16 16 0 0 1 16 16v57.04a16 16 0 0 1-16 16h-16a16 16 0 0 1-16-16V208a16 16 0 0 1 16-16zM608 192h16a16 16 0 0 1 16 16v57.04a16 16 0 0 1-16 16h-16a16 16 0 0 1-16-16V208a16 16 0 0 1 16-16z m84.16 52.528v-16a16 16 0 0 1 16-16h77.232a16 16 0 0 1 16 16V812.16a16 16 0 0 1-16 16H224a16 16 0 0 1-16-16V228.528a16 16 0 0 1 16-16h69.92a16 16 0 0 1 16 16v16a16 16 0 0 1-16 16H256V780.16h497.392V260.528H708.16a16 16 0 0 1-16-16z m-187.472 127.296a37.216 37.216 0 0 0-37.216 37.216v122.432a37.216 37.216 0 1 0 74.448 0v-122.432a37.216 37.216 0 0 0-37.232-37.216z m0-48a85.216 85.216 0 0 1 85.232 85.216v122.432a85.216 85.216 0 1 1-170.448 0v-122.432a85.216 85.216 0 0 1 85.216-85.216z" p-id="24057"></path></svg>