<?xml version="1.0" standalone="no"?><!DOCTYPE svg PUBLIC "-//W3C//DTD SVG 1.1//EN" "http://www.w3.org/Graphics/SVG/1.1/DTD/svg11.dtd"><svg class="icon" width="200px" height="200.00px" viewBox="0 0 1024 1024" version="1.1" xmlns="http://www.w3.org/2000/svg"><path fill="#333333" d="M375.776 336.688v-1.52c0-78.72 60.192-143.168 135.296-143.168 75.12 0 135.312 64.448 135.312 143.168v1.52h105.696a16 16 0 0 1 15.92 14.448l46.08 472.352a16 16 0 0 1-15.92 17.552H224a16 16 0 0 1-15.92-17.552l46.08-472.352a16 16 0 0 1 15.92-14.448h105.696z m222.608 0v-1.52c0-52.912-39.472-95.168-87.312-95.168-47.84 0-87.296 42.24-87.296 95.168v1.52h174.608z m-95.312 129.76h16a16 16 0 0 1 16 16v212.864a16 16 0 0 1-16 16h-16a16 16 0 0 1-16-16V482.432a16 16 0 0 1 16-16z m-77.92 44.512h16a16 16 0 0 1 16 16v123.824a16 16 0 0 1-16 16h-16a16 16 0 0 1-16-16v-123.84a16 16 0 0 1 16-16z m155.84 0h16a16 16 0 0 1 16 16v123.824a16 16 0 0 1-16 16h-16a16 16 0 0 1-16-16v-123.84a16 16 0 0 1 16-16z m-233.744 44.512h16a16 16 0 0 1 16 16v34.784a16 16 0 0 1-16 16h-16a16 16 0 0 1-16-16v-34.784a16 16 0 0 1 16-16z m311.664 0h16a16 16 0 0 1 16 16v34.784a16 16 0 0 1-16 16h-16a16 16 0 0 1-16-16v-34.784a16 16 0 0 1 16-16zM259.28 793.04H762.88l-39.84-408.352H299.12l-39.84 408.352z" /></svg>