<?xml version="1.0" standalone="no"?><!DOCTYPE svg PUBLIC "-//W3C//DTD SVG 1.1//EN" "http://www.w3.org/Graphics/SVG/1.1/DTD/svg11.dtd"><svg t="1588299850364" class="icon" viewBox="0 0 1024 1024" version="1.1" xmlns="http://www.w3.org/2000/svg" p-id="15800" xmlns:xlink="http://www.w3.org/1999/xlink" width="200" height="200"><defs><style type="text/css"></style></defs><path d="M519.312 392h16a16 16 0 0 1 16 16v168.352a16 16 0 0 1-16 16h-16a16 16 0 0 1-16-16V408a16 16 0 0 1 16-16zM408 436.528h16a16 16 0 0 1 16 16v79.296a16 16 0 0 1-16 16h-16a16 16 0 0 1-16-16v-79.296a16 16 0 0 1 16-16z m222.608 0h16a16 16 0 0 1 16 16v79.296a16 16 0 0 1-16 16h-16a16 16 0 0 1-16-16v-79.296a16 16 0 0 1 16-16zM418.512 719.28l0.032-0.08A311.04 311.04 0 0 0 520 736C675.2 736 800 624.32 800 488S675.2 240 520 240 240 351.68 240 488c0 70.592 33.52 136.56 91.568 183.392l-0.08 0.096 3.328 92.8 83.696-45.008z m-134-25.184C225.84 639.536 192 566.304 192 488 192 323.888 339.408 192 520 192S848 323.888 848 488 700.592 784 520 784c-32.992 0-65.328-4.4-96.224-12.944l-109.792 59.76a16 16 0 0 1-23.632-13.312l-5.84-123.408z" p-id="15801"></path></svg>