<?xml version="1.0" standalone="no"?><!DOCTYPE svg PUBLIC "-//W3C//DTD SVG 1.1//EN" "http://www.w3.org/Graphics/SVG/1.1/DTD/svg11.dtd"><svg class="icon" width="200px" height="200.00px" viewBox="0 0 1024 1024" version="1.1" xmlns="http://www.w3.org/2000/svg"><path fill="#333333" d="M380.496 659.36v138.368l117.76-92.176a16 16 0 0 1 22.464 2.72l9.872 12.608a16 16 0 0 1-2.736 22.464l-156.56 122.56c-15.76 12.32-38.8 1.104-38.8-18.896V659.36h-71.248A37.248 37.248 0 0 1 224 622.128v-225.76a37.248 37.248 0 0 1 37.248-37.28h71.248v-191.04c0-19.888 22.8-31.152 38.592-19.056l156.464 119.808a16 16 0 0 1 2.976 22.432l-9.728 12.704a16 16 0 0 1-22.432 2.976l-117.872-90.256v142.448h71.52a37.248 37.248 0 0 1 37.248 37.264v225.76a37.248 37.248 0 0 1-37.248 37.248h-71.52z m0-48h60.768V407.12h-60.768V611.36z m-48 0V407.12H272V611.36h60.496z m465.824-80.64l-191.488 151.632c-17.952 14.208-44.416 1.44-44.416-21.472V357.6c0-22.912 26.464-35.68 44.416-21.472l191.488 151.664a27.392 27.392 0 0 1 0 42.944z m-187.904-130.528v218.08l137.696-109.024-137.696-109.056z" /></svg>